<svg xmlns='http://www.w3.org/2000/svg' width='800' height='600' viewBox='0 0 800 600'>
<defs>
<style><![CDATA[text { font-family: 'Helvetica Neue', Helvetica, Arial, sans-serif; font-size: 18px; }]]></style>
</defs>
<polyline points="666.67,300.00 666.63,296.51 666.50,293.02 666.30,289.53 666.02,286.05 665.65,282.57 665.21,279.09 664.68,275.63 664.07,272.17 663.38,268.71 662.62,265.27 661.77,261.84 660.84,258.42 659.83,255.01 658.75,251.62 657.58,248.24 656.34,244.87 655.01,241.53 653.62,238.20 652.14,234.89 650.58,231.60 648.95,228.33 647.25,225.08 645.47,221.85 643.61,218.65 641.68,215.48 639.68,212.33 637.60,209.20 635.45,206.11 633.23,203.04 630.94,200.00 628.58,196.99 626.15,194.02 623.65,191.07 621.08,188.16 618.44,185.28 615.74,182.44 612.97,179.64 610.14,176.87 607.24,174.14 604.28,171.44 601.26,168.79 598.17,166.17 595.03,163.60 591.82,161.07 588.56,158.58 585.24,156.13 581.87,153.73 578.43,151.37 574.95,149.06 571.41,146.79 567.82,144.57 564.18,142.40 560.48,140.27 556.74,138.20 552.95,136.17 549.12,134.19 545.24,132.27 541.31,130.39 537.34,128.57 533.33,126.79 529.28,125.08 525.19,123.41 521.06,121.80 516.90,120.24 512.70,118.74 508.46,117.29 504.19,115.90 499.90,114.56 495.56,113.28 491.21,112.06 486.82,110.90 482.40,109.79 477.97,108.74 473.50,107.75 469.02,106.81 464.51,105.94 459.99,105.13 455.44,104.37 450.88,103.67 446.31,103.04 441.72,102.46 437.11,101.95 432.50,101.49 427.87,101.10 423.24,100.76 418.60,100.49 413.96,100.27 409.31,100.12 404.65,100.03 400.00,100.00 395.35,100.03 390.69,100.12 386.04,100.27 381.40,100.49 376.76,100.76 372.13,101.10 367.50,101.49 362.89,101.95 358.28,102.46 353.69,103.04 349.12,103.67 344.56,104.37 340.01,105.13 335.49,105.94 330.98,106.81 326.50,107.75 322.03,108.74 317.60,109.79 313.18,110.90 308.79,112.06 304.44,113.28 300.10,114.56 295.81,115.90 291.54,117.29 287.30,118.74 283.10,120.24 278.94,121.80 274.81,123.41 270.72,125.08 266.67,126.79 262.66,128.57 258.69,130.39 254.76,132.27 250.88,134.19 247.05,136.17 243.26,138.20 239.52,140.27 235.82,142.40 232.18,144.57 228.59,146.79 225.05,149.06 221.57,151.37 218.13,153.73 214.76,156.13 211.44,158.58 208.18,161.07 204.97,163.60 201.83,166.17 198.74,168.79 195.72,171.44 192.76,174.14 189.86,176.87 187.03,179.64 184.26,182.44 181.56,185.28 178.92,188.16 176.35,191.07 173.85,194.02 171.42,196.99 169.06,200.00 166.77,203.04 164.55,206.11 162.40,209.20 160.32,212.33 158.32,215.48 156.39,218.65 154.53,221.85 152.75,225.08 151.05,228.33 149.42,231.60 147.86,234.89 146.38,238.20 144.99,241.53 143.66,244.87 142.42,248.24 141.25,251.62 140.17,255.01 139.16,258.42 138.23,261.84 137.38,265.27 136.62,268.71 135.93,272.17 135.32,275.63 134.79,279.09 134.35,282.57 133.98,286.05 133.70,289.53 133.50,293.02 133.37,296.51 133.33,300.00 133.37,303.49 133.50,306.98 133.70,310.47 133.98,313.95 134.35,317.43 134.79,320.91 135.32,324.37 135.93,327.83 136.62,331.29 137.38,334.73 138.23,338.16 139.16,341.58 140.17,344.99 141.25,348.38 142.42,351.76 143.66,355.13 144.99,358.47 146.38,361.80 147.86,365.11 149.42,368.40 151.05,371.67 152.75,374.92 154.53,378.15 156.39,381.35 158.32,384.52 160.32,387.67 162.40,390.80 164.55,393.89 166.77,396.96 169.06,400.00 171.42,403.01 173.85,405.98 176.35,408.93 178.92,411.84 181.56,414.72 184.26,417.56 187.03,420.36 189.86,423.13 192.76,425.86 195.72,428.56 198.74,431.21 201.83,433.83 204.97,436.40 208.18,438.93 211.44,441.42 214.76,443.87 218.13,446.27 221.57,448.63 225.05,450.94 228.59,453.21 232.18,455.43 235.82,457.60 239.52,459.73 243.26,461.80 247.05,463.83 250.88,465.81 254.76,467.73 258.69,469.61 262.66,471.43 266.67,473.21 270.72,474.92 274.81,476.59 278.94,478.20 283.10,479.76 287.30,481.26 291.54,482.71 295.81,484.10 300.10,485.44 304.44,486.72 308.79,487.94 313.18,489.10 317.60,490.21 322.03,491.26 326.50,492.25 330.98,493.19 335.49,494.06 340.01,494.87 344.56,495.63 349.12,496.33 353.69,496.96 358.28,497.54 362.89,498.05 367.50,498.51 372.13,498.90 376.76,499.24 381.40,499.51 386.04,499.73 390.69,499.88 395.35,499.97 400.00,500.00 404.65,499.97 409.31,499.88 413.96,499.73 418.60,499.51 423.24,499.24 427.87,498.90 432.50,498.51 437.11,498.05 441.72,497.54 446.31,496.96 450.88,496.33 455.44,495.63 459.99,494.87 464.51,494.06 469.02,493.19 473.50,492.25 477.97,491.26 482.40,490.21 486.82,489.10 491.21,487.94 495.56,486.72 499.90,485.44 504.19,484.10 508.46,482.71 512.70,481.26 516.90,479.76 521.06,478.20 525.19,476.59 529.28,474.92 533.33,473.21 537.34,471.43 541.31,469.61 545.24,467.73 549.12,465.81 552.95,463.83 556.74,461.80 560.48,459.73 564.18,457.60 567.82,455.43 571.41,453.21 574.95,450.94 578.43,448.63 581.87,446.27 585.24,443.87 588.56,441.42 591.82,438.93 595.03,436.40 598.17,433.83 601.26,431.21 604.28,428.56 607.24,425.86 610.14,423.13 612.97,420.36 615.74,417.56 618.44,414.72 621.08,411.84 623.65,408.93 626.15,405.98 628.58,403.01 630.94,400.00 633.23,396.96 635.45,393.89 637.60,390.80 639.68,387.67 641.68,384.52 643.61,381.35 645.47,378.15 647.25,374.92 648.95,371.67 650.58,368.40 652.14,365.11 653.62,361.80 655.01,358.47 656.34,355.13 657.58,351.76 658.75,348.38 659.83,344.99 660.84,341.58 661.77,338.16 662.62,334.73 663.38,331.29 664.07,327.83 664.68,324.37 665.21,320.91 665.65,317.43 666.02,313.95 666.30,310.47 666.50,306.98 666.63,303.49 666.67,300.00" stroke='#1f77b4' stroke-width='3' fill='none' />
<polyline points="489.42,1.79 490.63,5.75 491.83,9.61 493.03,13.36 494.24,17.02 495.44,20.59 496.64,24.07 497.84,27.46 499.05,30.77 500.25,34.00 501.45,37.15 502.66,40.23 503.86,43.24 505.06,46.18 506.27,49.06 507.47,51.87 508.67,54.61 509.87,57.30 511.08,59.93 512.28,62.50 513.48,65.02 514.69,67.48 515.89,69.90 517.09,72.26 518.30,74.58 519.50,76.85 520.70,79.07 521.90,81.25 523.11,83.39 524.31,85.48 525.51,87.54 526.72,89.56 527.92,91.54 529.12,93.48 530.33,95.38 531.53,97.26 532.73,99.09 533.93,100.90 535.14,102.67 536.34,104.41 537.54,106.12 538.75,107.80 539.95,109.46 541.15,111.08 542.36,112.68 543.56,114.25 544.76,115.79 545.96,117.31 547.17,118.80 548.37,120.27 549.57,121.72 550.78,123.14 551.98,124.54 553.18,125.92 554.39,127.27 555.59,128.61 556.79,129.92 557.99,131.22 559.20,132.49 560.40,133.75 561.60,134.99 562.81,136.21 564.01,137.41 565.21,138.59 566.42,139.76 567.62,140.91 568.82,142.04 570.03,143.16 571.23,144.26 572.43,145.35 573.63,146.42 574.84,147.48 576.04,148.52 577.24,149.55 578.45,150.56 579.65,151.56 580.85,152.55 582.06,153.52 583.26,154.49 584.46,155.43 585.66,156.37 586.87,157.30 588.07,158.21 589.27,159.11 590.48,160.00 591.68,160.88 592.88,161.75 594.09,162.60 595.29,163.45 596.49,164.29 597.69,165.11 598.90,165.93 600.10,166.73 601.30,167.53 602.51,168.32 603.71,169.09 604.91,169.86 606.12,170.62 607.32,171.37 608.52,172.12 609.72,172.85 610.93,173.57 612.13,174.29 613.33,175.00 614.54,175.70 615.74,176.39 616.94,177.08 618.15,177.76 619.35,178.43 620.55,179.09 621.75,179.75 622.96,180.40 624.16,181.04 625.36,181.67 626.57,182.30 627.77,182.92 628.97,183.54 630.18,184.15 631.38,184.75 632.58,185.34 633.78,185.93 634.99,186.52 636.19,187.10 637.39,187.67 638.60,188.24 639.80,188.80 641.00,189.35 642.21,189.90 643.41,190.44 644.61,190.98 645.81,191.52 647.02,192.05 648.22,192.57 649.42,193.09 650.63,193.60 651.83,194.11 653.03,194.61 654.24,195.11 655.44,195.60 656.64,196.09 657.84,196.58 659.05,197.06 660.25,197.53 661.45,198.01 662.66,198.47 663.86,198.94 665.06,199.39 666.27,199.85 667.47,200.30 668.67,200.75 669.87,201.19 671.08,201.63 672.28,202.06 673.48,202.49 674.69,202.92 675.89,203.34 677.09,203.76 678.30,204.18 679.50,204.59 680.70,205.00 681.90,205.41 683.11,205.81 684.31,206.21 685.51,206.60 686.72,206.99 687.92,207.38 689.12,207.77 690.33,208.15 691.53,208.53 692.73,208.90 693.93,209.28 695.14,209.65 696.34,210.01 697.54,210.38 698.75,210.74 699.95,211.10 701.15,211.45 702.36,211.80 703.56,212.15 704.76,212.50 705.96,212.84 707.17,213.19 708.37,213.52 709.57,213.86 710.78,214.19 711.98,214.52 713.18,214.85 714.39,215.18 715.59,215.50 716.79,215.82 717.99,216.14 719.20,216.46 720.40,216.77 721.60,217.08 722.81,217.39 724.01,217.70 725.21,218.00 726.42,218.30 727.62,218.60 728.82,218.90 730.03,219.20 731.23,219.49 732.43,219.78 733.63,220.07 734.84,220.36 736.04,220.64 737.24,220.93 738.45,221.21 739.65,221.49 740.85,221.76 742.06,222.04 743.26,222.31 744.46,222.58 745.66,222.85 746.87,223.12 748.07,223.39 749.27,223.65 750.48,223.91 751.68,224.17 752.88,224.43 754.09,224.69 755.29,224.94 756.49,225.20 757.69,225.45 758.90,225.70 760.10,225.95 761.30,226.19 762.51,226.44 763.71,226.68 764.91,226.92 766.12,227.16 767.32,227.40 768.52,227.64 769.72,227.87 770.93,228.11 772.13,228.34 773.33,228.57 774.54,228.80 775.74,229.03 776.94,229.26 778.15,229.48 779.35,229.70 780.55,229.93 781.75,230.15 782.96,230.37 784.16,230.58 785.36,230.80 786.57,231.02 787.77,231.23 788.97,231.44 790.18,231.65 791.38,231.86 792.58,232.07 793.78,232.28 794.99,232.49 796.19,232.69 797.39,232.90 798.60,233.10 799.80,233.30 801.00,233.50 802.21,233.70 803.41,233.90 804.61,234.09 805.81,234.29 807.02,234.48 808.22,234.68 809.42,234.87 810.63,235.06 811.83,235.25 813.03,235.44 814.24,235.62 815.44,235.81 816.64,236.00 817.84,236.18 819.05,236.36 820.25,236.55 821.45,236.73 822.66,236.91 823.86,237.09 825.06,237.26 826.27,237.44 827.47,237.62 828.67,237.79 829.87,237.97 831.08,238.14 832.28,238.31 833.48,238.48 834.69,238.65 835.89,238.82 837.09,238.99 838.30,239.16 839.50,239.32 840.70,239.49 841.90,239.66 843.11,239.82 844.31,239.98 845.51,240.14 846.72,240.31 847.92,240.47 849.12,240.62 850.33,240.78 851.53,240.94 852.73,241.10 853.93,241.25 855.14,241.41 856.34,241.56 857.54,241.72 858.75,241.87 859.95,242.02 861.15,242.17 862.36,242.32 863.56,242.47 864.76,242.62 865.96,242.77 867.17,242.92 868.37,243.07 869.57,243.21 870.78,243.36 871.98,243.50 873.18,243.64 874.39,243.79 875.59,243.93 876.79,244.07 877.99,244.21 879.20,244.35 880.40,244.49 881.60,244.63 882.81,244.77 884.01,244.90 885.21,245.04 886.42,245.18 887.62,245.31 888.82,245.45 890.03,245.58 891.23,245.71 892.43,245.85 893.63,245.98 894.84,246.11 896.04,246.24 897.24,246.37 898.45,246.50 899.65,246.63 900.85,246.76 902.06,246.88 903.26,247.01 904.46,247.14 905.66,247.26 906.87,247.39 908.07,247.51 909.27,247.64 910.48,247.76 911.68,247.88 912.88,248.01 914.09,248.13 915.29,248.25 916.49,248.37 917.69,248.49 918.90,248.61 920.10,248.73 921.30,248.85 922.51,248.96 923.71,249.08 924.91,249.20 926.12,249.31 927.32,249.43 928.52,249.54 929.72,249.66 930.93,249.77 932.13,249.89 933.33,250.00" stroke='#d62728' stroke-width='3' fill='none' />
<polyline points="310.58,598.21 309.37,594.25 308.17,590.39 306.97,586.64 305.76,582.98 304.56,579.41 303.36,575.93 302.16,572.54 300.95,569.23 299.75,566.00 298.55,562.85 297.34,559.77 296.14,556.76 294.94,553.82 293.73,550.94 292.53,548.13 291.33,545.39 290.13,542.70 288.92,540.07 287.72,537.50 286.52,534.98 285.31,532.52 284.11,530.10 282.91,527.74 281.70,525.42 280.50,523.15 279.30,520.93 278.10,518.75 276.89,516.61 275.69,514.52 274.49,512.46 273.28,510.44 272.08,508.46 270.88,506.52 269.67,504.62 268.47,502.74 267.27,500.91 266.07,499.10 264.86,497.33 263.66,495.59 262.46,493.88 261.25,492.20 260.05,490.54 258.85,488.92 257.64,487.32 256.44,485.75 255.24,484.21 254.04,482.69 252.83,481.20 251.63,479.73 250.43,478.28 249.22,476.86 248.02,475.46 246.82,474.08 245.61,472.73 244.41,471.39 243.21,470.08 242.01,468.78 240.80,467.51 239.60,466.25 238.40,465.01 237.19,463.79 235.99,462.59 234.79,461.41 233.58,460.24 232.38,459.09 231.18,457.96 229.97,456.84 228.77,455.74 227.57,454.65 226.37,453.58 225.16,452.52 223.96,451.48 222.76,450.45 221.55,449.44 220.35,448.44 219.15,447.45 217.94,446.48 216.74,445.51 215.54,444.57 214.34,443.63 213.13,442.70 211.93,441.79 210.73,440.89 209.52,440.00 208.32,439.12 207.12,438.25 205.91,437.40 204.71,436.55 203.51,435.71 202.31,434.89 201.10,434.07 199.90,433.27 198.70,432.47 197.49,431.68 196.29,430.91 195.09,430.14 193.88,429.38 192.68,428.63 191.48,427.88 190.28,427.15 189.07,426.43 187.87,425.71 186.67,425.00 185.46,424.30 184.26,423.61 183.06,422.92 181.85,422.24 180.65,421.57 179.45,420.91 178.25,420.25 177.04,419.60 175.84,418.96 174.64,418.33 173.43,417.70 172.23,417.08 171.03,416.46 169.82,415.85 168.62,415.25 167.42,414.66 166.22,414.07 165.01,413.48 163.81,412.90 162.61,412.33 161.40,411.76 160.20,411.20 159.00,410.65 157.79,410.10 156.59,409.56 155.39,409.02 154.19,408.48 152.98,407.95 151.78,407.43 150.58,406.91 149.37,406.40 148.17,405.89 146.97,405.39 145.76,404.89 144.56,404.40 143.36,403.91 142.16,403.42 140.95,402.94 139.75,402.47 138.55,401.99 137.34,401.53 136.14,401.06 134.94,400.61 133.73,400.15 132.53,399.70 131.33,399.25 130.13,398.81 128.92,398.37 127.72,397.94 126.52,397.51 125.31,397.08 124.11,396.66 122.91,396.24 121.70,395.82 120.50,395.41 119.30,395.00 118.10,394.59 116.89,394.19 115.69,393.79 114.49,393.40 113.28,393.01 112.08,392.62 110.88,392.23 109.67,391.85 108.47,391.47 107.27,391.10 106.07,390.72 104.86,390.35 103.66,389.99 102.46,389.62 101.25,389.26 100.05,388.90 98.85,388.55 97.64,388.20 96.44,387.85 95.24,387.50 94.04,387.16 92.83,386.81 91.63,386.48 90.43,386.14 89.22,385.81 88.02,385.48 86.82,385.15 85.61,384.82 84.41,384.50 83.21,384.18 82.01,383.86 80.80,383.54 79.60,383.23 78.40,382.92 77.19,382.61 75.99,382.30 74.79,382.00 73.58,381.70 72.38,381.40 71.18,381.10 69.97,380.80 68.77,380.51 67.57,380.22 66.37,379.93 65.16,379.64 63.96,379.36 62.76,379.07 61.55,378.79 60.35,378.51 59.15,378.24 57.94,377.96 56.74,377.69 55.54,377.42 54.34,377.15 53.13,376.88 51.93,376.61 50.73,376.35 49.52,376.09 48.32,375.83 47.12,375.57 45.91,375.31 44.71,375.06 43.51,374.80 42.31,374.55 41.10,374.30 39.90,374.05 38.70,373.81 37.49,373.56 36.29,373.32 35.09,373.08 33.88,372.84 32.68,372.60 31.48,372.36 30.28,372.13 29.07,371.89 27.87,371.66 26.67,371.43 25.46,371.20 24.26,370.97 23.06,370.74 21.85,370.52 20.65,370.30 19.45,370.07 18.25,369.85 17.04,369.63 15.84,369.42 14.64,369.20 13.43,368.98 12.23,368.77 11.03,368.56 9.82,368.35 8.62,368.14 7.42,367.93 6.22,367.72 5.01,367.51 3.81,367.31 2.61,367.10 1.40,366.90 0.20,366.70 -1.00,366.50 -2.21,366.30 -3.41,366.10 -4.61,365.91 -5.81,365.71 -7.02,365.52 -8.22,365.32 -9.42,365.13 -10.63,364.94 -11.83,364.75 -13.03,364.56 -14.24,364.38 -15.44,364.19 -16.64,364.00 -17.84,363.82 -19.05,363.64 -20.25,363.45 -21.45,363.27 -22.66,363.09 -23.86,362.91 -25.06,362.74 -26.27,362.56 -27.47,362.38 -28.67,362.21 -29.87,362.03 -31.08,361.86 -32.28,361.69 -33.48,361.52 -34.69,361.35 -35.89,361.18 -37.09,361.01 -38.30,360.84 -39.50,360.68 -40.70,360.51 -41.90,360.34 -43.11,360.18 -44.31,360.02 -45.51,359.86 -46.72,359.69 -47.92,359.53 -49.12,359.38 -50.33,359.22 -51.53,359.06 -52.73,358.90 -53.93,358.75 -55.14,358.59 -56.34,358.44 -57.54,358.28 -58.75,358.13 -59.95,357.98 -61.15,357.83 -62.36,357.68 -63.56,357.53 -64.76,357.38 -65.96,357.23 -67.17,357.08 -68.37,356.93 -69.57,356.79 -70.78,356.64 -71.98,356.50 -73.18,356.36 -74.39,356.21 -75.59,356.07 -76.79,355.93 -77.99,355.79 -79.20,355.65 -80.40,355.51 -81.60,355.37 -82.81,355.23 -84.01,355.10 -85.21,354.96 -86.42,354.82 -87.62,354.69 -88.82,354.55 -90.03,354.42 -91.23,354.29 -92.43,354.15 -93.63,354.02 -94.84,353.89 -96.04,353.76 -97.24,353.63 -98.45,353.50 -99.65,353.37 -100.85,353.24 -102.06,353.12 -103.26,352.99 -104.46,352.86 -105.66,352.74 -106.87,352.61 -108.07,352.49 -109.27,352.36 -110.48,352.24 -111.68,352.12 -112.88,351.99 -114.09,351.87 -115.29,351.75 -116.49,351.63 -117.69,351.51 -118.90,351.39 -120.10,351.27 -121.30,351.15 -122.51,351.04 -123.71,350.92 -124.91,350.80 -126.12,350.69 -127.32,350.57 -128.52,350.46 -129.72,350.34 -130.93,350.23 -132.13,350.11 -133.33,350.00" stroke='#d62728' stroke-width='3' fill='none' />
<polyline points="0.00,300.00 800.00,300.00" stroke='#ff7f0e' stroke-width='2' stroke-dasharray='6 6' fill='none' />
<polyline points="400.00,600.00 400.00,0.00" stroke='#ff7f0e' stroke-width='2' stroke-dasharray='6 6' fill='none' />
<circle cx='588.56' cy='158.58' r='6' fill='#000000' />
<text x='598.56' y='148.58' fill='#000000' font-size='17'>Tangency (1/√2, 1/√2)</text>
<text x='40' y='60' fill='#333333' font-size='26'>Circle vs Hyperbola</text>
<text x='40' y='90' fill='#1f77b4'>Constraint x² + y² = 1</text>
<text x='40' y='120' fill='#d62728'>Level set xy = 1/2</text>
<text x='40' y='150' fill='#ff7f0e'>Level set xy = 0</text>
<rect x='0' y='0' width='800' height='600' fill='none' stroke='#dddddd' stroke-width='1' />
</svg>