<svg xmlns='http://www.w3.org/2000/svg' width='1200' height='600' viewBox='0 0 1200 600'>
<defs>
<style><![CDATA[text { font-family: 'Helvetica Neue', Helvetica, Arial, sans-serif; font-size: 18px; }]]></style>
<marker id='arrow' markerWidth='10' markerHeight='10' refX='8' refY='5' orient='auto' markerUnits='strokeWidth'>
<path d='M0,0 L10,5 L0,10 z' fill='inherit' />
</marker>
</defs>
<rect x='0' y='0' width='1200' height='600' fill='none' stroke='#dddddd' stroke-width='1' />
<text x='40' y='40' fill='#333333' font-size='26'>Gradient Geometry</text>
<text x='120' y='70' fill='#333333' font-size='24'>Intersection</text>
<text x='720.00' y='70' fill='#333333' font-size='24'>Tangency</text>
<polyline points="444.00,420.00 443.96,415.39 443.84,410.79 443.64,406.18 443.36,401.58 443.00,396.99 442.55,392.40 442.03,387.83 441.43,383.26 440.75,378.70 439.99,374.16 439.15,369.63 438.23,365.11 437.23,360.61 436.16,356.13 435.00,351.67 433.77,347.23 432.46,342.81 431.08,338.42 429.62,334.05 428.08,329.71 426.47,325.39 424.78,321.10 423.01,316.85 421.18,312.62 419.27,308.43 417.28,304.27 415.23,300.15 413.10,296.06 410.90,292.01 408.63,288.00 406.29,284.03 403.88,280.10 401.41,276.22 398.87,272.37 396.26,268.58 393.58,264.82 390.84,261.12 388.03,257.47 385.17,253.86 382.24,250.30 379.24,246.80 376.19,243.35 373.08,239.95 369.91,236.61 366.68,233.32 363.39,230.09 360.05,226.92 356.65,223.81 353.20,220.76 349.70,217.76 346.14,214.83 342.53,211.97 338.88,209.16 335.18,206.42 331.42,203.74 327.63,201.13 323.78,198.59 319.90,196.12 315.97,193.71 312.00,191.37 307.99,189.10 303.94,186.90 299.85,184.77 295.73,182.72 291.57,180.73 287.38,178.82 283.15,176.99 278.90,175.22 274.61,173.53 270.29,171.92 265.95,170.38 261.58,168.92 257.19,167.54 252.77,166.23 248.33,165.00 243.87,163.84 239.39,162.77 234.89,161.77 230.37,160.85 225.84,160.01 221.30,159.25 216.74,158.57 212.17,157.97 207.60,157.45 203.01,157.00 198.42,156.64 193.82,156.36 189.21,156.16 184.61,156.04 180.00,156.00 175.39,156.04 170.79,156.16 166.18,156.36 161.58,156.64 156.99,157.00 152.40,157.45 147.83,157.97 143.26,158.57 138.70,159.25 134.16,160.01 129.63,160.85 125.11,161.77 120.61,162.77 116.13,163.84 111.67,165.00 107.23,166.23 102.81,167.54 98.42,168.92 94.05,170.38 89.71,171.92 85.39,173.53 81.10,175.22 76.85,176.99 72.62,178.82 68.43,180.73 64.27,182.72 60.15,184.77 56.06,186.90 52.01,189.10 48.00,191.37 44.03,193.71 40.10,196.12 36.22,198.59 32.37,201.13 28.58,203.74 24.82,206.42 21.12,209.16 17.47,211.97 13.86,214.83 10.30,217.76 6.80,220.76 3.35,223.81 -0.05,226.92 -3.39,230.09 -6.68,233.32 -9.91,236.61 -13.08,239.95 -16.19,243.35 -19.24,246.80 -22.24,250.30 -25.17,253.86 -28.03,257.47 -30.84,261.12 -33.58,264.82 -36.26,268.58 -38.87,272.37 -41.41,276.22 -43.88,280.10 -46.29,284.03 -48.63,288.00 -50.90,292.01 -53.10,296.06 -55.23,300.15 -57.28,304.27 -59.27,308.43 -61.18,312.62 -63.01,316.85 -64.78,321.10 -66.47,325.39 -68.08,329.71 -69.62,334.05 -71.08,338.42 -72.46,342.81 -73.77,347.23 -75.00,351.67 -76.16,356.13 -77.23,360.61 -78.23,365.11 -79.15,369.63 -79.99,374.16 -80.75,378.70 -81.43,383.26 -82.03,387.83 -82.55,392.40 -83.00,396.99 -83.36,401.58 -83.64,406.18 -83.84,410.79 -83.96,415.39 -84.00,420.00 -83.96,424.61 -83.84,429.21 -83.64,433.82 -83.36,438.42 -83.00,443.01 -82.55,447.60 -82.03,452.17 -81.43,456.74 -80.75,461.30 -79.99,465.84 -79.15,470.37 -78.23,474.89 -77.23,479.39 -76.16,483.87 -75.00,488.33 -73.77,492.77 -72.46,497.19 -71.08,501.58 -69.62,505.95 -68.08,510.29 -66.47,514.61 -64.78,518.90 -63.01,523.15 -61.18,527.38 -59.27,531.57 -57.28,535.73 -55.23,539.85 -53.10,543.94 -50.90,547.99 -48.63,552.00 -46.29,555.97 -43.88,559.90 -41.41,563.78 -38.87,567.63 -36.26,571.42 -33.58,575.18 -30.84,578.88 -28.03,582.53 -25.17,586.14 -22.24,589.70 -19.24,593.20 -16.19,596.65 -13.08,600.05 -9.91,603.39 -6.68,606.68 -3.39,609.91 -0.05,613.08 3.35,616.19 6.80,619.24 10.30,622.24 13.86,625.17 17.47,628.03 21.12,630.84 24.82,633.58 28.58,636.26 32.37,638.87 36.22,641.41 40.10,643.88 44.03,646.29 48.00,648.63 52.01,650.90 56.06,653.10 60.15,655.23 64.27,657.28 68.43,659.27 72.62,661.18 76.85,663.01 81.10,664.78 85.39,666.47 89.71,668.08 94.05,669.62 98.42,671.08 102.81,672.46 107.23,673.77 111.67,675.00 116.13,676.16 120.61,677.23 125.11,678.23 129.63,679.15 134.16,679.99 138.70,680.75 143.26,681.43 147.83,682.03 152.40,682.55 156.99,683.00 161.58,683.36 166.18,683.64 170.79,683.84 175.39,683.96 180.00,684.00 184.61,683.96 189.21,683.84 193.82,683.64 198.42,683.36 203.01,683.00 207.60,682.55 212.17,682.03 216.74,681.43 221.30,680.75 225.84,679.99 230.37,679.15 234.89,678.23 239.39,677.23 243.87,676.16 248.33,675.00 252.77,673.77 257.19,672.46 261.58,671.08 265.95,669.62 270.29,668.08 274.61,666.47 278.90,664.78 283.15,663.01 287.38,661.18 291.57,659.27 295.73,657.28 299.85,655.23 303.94,653.10 307.99,650.90 312.00,648.63 315.97,646.29 319.90,643.88 323.78,641.41 327.63,638.87 331.42,636.26 335.18,633.58 338.88,630.84 342.53,628.03 346.14,625.17 349.70,622.24 353.20,619.24 356.65,616.19 360.05,613.08 363.39,609.91 366.68,606.68 369.91,603.39 373.08,600.05 376.19,596.65 379.24,593.20 382.24,589.70 385.17,586.14 388.03,582.53 390.84,578.88 393.58,575.18 396.26,571.42 398.87,567.63 401.41,563.78 403.88,559.90 406.29,555.97 408.63,552.00 410.90,547.99 413.10,543.94 415.23,539.85 417.28,535.73 419.27,531.57 421.18,527.38 423.01,523.15 424.78,518.90 426.47,514.61 428.08,510.29 429.62,505.95 431.08,501.58 432.46,497.19 433.77,492.77 435.00,488.33 436.16,483.87 437.23,479.39 438.23,474.89 439.15,470.37 439.99,465.84 440.75,461.30 441.43,456.74 442.03,452.17 442.55,447.60 443.00,443.01 443.36,438.42 443.64,433.82 443.84,429.21 443.96,424.61 444.00,420.00" stroke='#ff7f0e' stroke-width='2.5' fill='none' stroke-dasharray='8 6' />
<polyline points="60.00,60.00 61.20,61.20 62.41,62.41 63.61,63.61 64.81,64.81 66.02,66.02 67.22,67.22 68.42,68.42 69.62,69.62 70.83,70.83 72.03,72.03 73.23,73.23 74.44,74.44 75.64,75.64 76.84,76.84 78.05,78.05 79.25,79.25 80.45,80.45 81.65,81.65 82.86,82.86 84.06,84.06 85.26,85.26 86.47,86.47 87.67,87.67 88.87,88.87 90.08,90.08 91.28,91.28 92.48,92.48 93.68,93.68 94.89,94.89 96.09,96.09 97.29,97.29 98.50,98.50 99.70,99.70 100.90,100.90 102.11,102.11 103.31,103.31 104.51,104.51 105.71,105.71 106.92,106.92 108.12,108.12 109.32,109.32 110.53,110.53 111.73,111.73 112.93,112.93 114.14,114.14 115.34,115.34 116.54,116.54 117.74,117.74 118.95,118.95 120.15,120.15 121.35,121.35 122.56,122.56 123.76,123.76 124.96,124.96 126.17,126.17 127.37,127.37 128.57,128.57 129.77,129.77 130.98,130.98 132.18,132.18 133.38,133.38 134.59,134.59 135.79,135.79 136.99,136.99 138.20,138.20 139.40,139.40 140.60,140.60 141.80,141.80 143.01,143.01 144.21,144.21 145.41,145.41 146.62,146.62 147.82,147.82 149.02,149.02 150.23,150.23 151.43,151.43 152.63,152.63 153.83,153.83 155.04,155.04 156.24,156.24 157.44,157.44 158.65,158.65 159.85,159.85 161.05,161.05 162.26,162.26 163.46,163.46 164.66,164.66 165.86,165.86 167.07,167.07 168.27,168.27 169.47,169.47 170.68,170.68 171.88,171.88 173.08,173.08 174.29,174.29 175.49,175.49 176.69,176.69 177.89,177.89 179.10,179.10 180.30,180.30 181.50,181.50 182.71,182.71 183.91,183.91 185.11,185.11 186.32,186.32 187.52,187.52 188.72,188.72 189.92,189.92 191.13,191.13 192.33,192.33 193.53,193.53 194.74,194.74 195.94,195.94 197.14,197.14 198.35,198.35 199.55,199.55 200.75,200.75 201.95,201.95 203.16,203.16 204.36,204.36 205.56,205.56 206.77,206.77 207.97,207.97 209.17,209.17 210.38,210.38 211.58,211.58 212.78,212.78 213.98,213.98 215.19,215.19 216.39,216.39 217.59,217.59 218.80,218.80 220.00,220.00 221.20,221.20 222.41,222.41 223.61,223.61 224.81,224.81 226.02,226.02 227.22,227.22 228.42,228.42 229.62,229.62 230.83,230.83 232.03,232.03 233.23,233.23 234.44,234.44 235.64,235.64 236.84,236.84 238.05,238.05 239.25,239.25 240.45,240.45 241.65,241.65 242.86,242.86 244.06,244.06 245.26,245.26 246.47,246.47 247.67,247.67 248.87,248.87 250.08,250.08 251.28,251.28 252.48,252.48 253.68,253.68 254.89,254.89 256.09,256.09 257.29,257.29 258.50,258.50 259.70,259.70 260.90,260.90 262.11,262.11 263.31,263.31 264.51,264.51 265.71,265.71 266.92,266.92 268.12,268.12 269.32,269.32 270.53,270.53 271.73,271.73 272.93,272.93 274.14,274.14 275.34,275.34 276.54,276.54 277.74,277.74 278.95,278.95 280.15,280.15 281.35,281.35 282.56,282.56 283.76,283.76 284.96,284.96 286.17,286.17 287.37,287.37 288.57,288.57 289.77,289.77 290.98,290.98 292.18,292.18 293.38,293.38 294.59,294.59 295.79,295.79 296.99,296.99 298.20,298.20 299.40,299.40 300.60,300.60 301.80,301.80 303.01,303.01 304.21,304.21 305.41,305.41 306.62,306.62 307.82,307.82 309.02,309.02 310.23,310.23 311.43,311.43 312.63,312.63 313.83,313.83 315.04,315.04 316.24,316.24 317.44,317.44 318.65,318.65 319.85,319.85 321.05,321.05 322.26,322.26 323.46,323.46 324.66,324.66 325.86,325.86 327.07,327.07 328.27,328.27 329.47,329.47 330.68,330.68 331.88,331.88 333.08,333.08 334.29,334.29 335.49,335.49 336.69,336.69 337.89,337.89 339.10,339.10 340.30,340.30 341.50,341.50 342.71,342.71 343.91,343.91 345.11,345.11 346.32,346.32 347.52,347.52 348.72,348.72 349.92,349.92 351.13,351.13 352.33,352.33 353.53,353.53 354.74,354.74 355.94,355.94 357.14,357.14 358.35,358.35 359.55,359.55 360.75,360.75 361.95,361.95 363.16,363.16 364.36,364.36 365.56,365.56 366.77,366.77 367.97,367.97 369.17,369.17 370.38,370.38 371.58,371.58 372.78,372.78 373.98,373.98 375.19,375.19 376.39,376.39 377.59,377.59 378.80,378.80 380.00,380.00 381.20,381.20 382.41,382.41 383.61,383.61 384.81,384.81 386.02,386.02 387.22,387.22 388.42,388.42 389.62,389.62 390.83,390.83 392.03,392.03 393.23,393.23 394.44,394.44 395.64,395.64 396.84,396.84 398.05,398.05 399.25,399.25 400.45,400.45 401.65,401.65 402.86,402.86 404.06,404.06 405.26,405.26 406.47,406.47 407.67,407.67 408.87,408.87 410.08,410.08 411.28,411.28 412.48,412.48 413.68,413.68 414.89,414.89 416.09,416.09 417.29,417.29 418.50,418.50 419.70,419.70 420.90,420.90 422.11,422.11 423.31,423.31 424.51,424.51 425.71,425.71 426.92,426.92 428.12,428.12 429.32,429.32 430.53,430.53 431.73,431.73 432.93,432.93 434.14,434.14 435.34,435.34 436.54,436.54 437.74,437.74 438.95,438.95 440.15,440.15 441.35,441.35 442.56,442.56 443.76,443.76 444.96,444.96 446.17,446.17 447.37,447.37 448.57,448.57 449.77,449.77 450.98,450.98 452.18,452.18 453.38,453.38 454.59,454.59 455.79,455.79 456.99,456.99 458.20,458.20 459.40,459.40 460.60,460.60 461.80,461.80 463.01,463.01 464.21,464.21 465.41,465.41 466.62,466.62 467.82,467.82 469.02,469.02 470.23,470.23 471.43,471.43 472.63,472.63 473.83,473.83 475.04,475.04 476.24,476.24 477.44,477.44 478.65,478.65 479.85,479.85 481.05,481.05 482.26,482.26 483.46,483.46 484.66,484.66 485.86,485.86 487.07,487.07 488.27,488.27 489.47,489.47 490.68,490.68 491.88,491.88 493.08,493.08 494.29,494.29 495.49,495.49 496.69,496.69 497.89,497.89 499.10,499.10 500.30,500.30 501.50,501.50 502.71,502.71 503.91,503.91 505.11,505.11 506.32,506.32 507.52,507.52 508.72,508.72 509.92,509.92 511.13,511.13 512.33,512.33 513.53,513.53 514.74,514.74 515.94,515.94 517.14,517.14 518.35,518.35 519.55,519.55 520.75,520.75 521.95,521.95 523.16,523.16 524.36,524.36 525.56,525.56 526.77,526.77 527.97,527.97 529.17,529.17 530.38,530.38 531.58,531.58 532.78,532.78 533.98,533.98 535.19,535.19 536.39,536.39 537.59,537.59 538.80,538.80 540.00,540.00" stroke='#1f77b4' stroke-width='3' fill='none' />
<polyline points="949.71,420.00 949.68,417.04 949.60,414.08 949.47,411.12 949.29,408.16 949.06,405.21 948.78,402.26 948.44,399.32 948.05,396.38 947.62,393.45 947.13,390.53 946.59,387.62 946.00,384.72 945.36,381.82 944.66,378.94 943.92,376.08 943.13,373.22 942.29,370.38 941.40,367.56 940.46,364.75 939.47,361.96 938.43,359.18 937.35,356.43 936.21,353.69 935.03,350.97 933.81,348.28 932.53,345.61 931.21,342.96 929.84,340.33 928.43,337.73 926.97,335.15 925.47,332.60 923.92,330.07 922.33,327.57 920.69,325.10 919.01,322.66 917.29,320.25 915.53,317.87 913.73,315.52 911.89,313.20 910.00,310.92 908.08,308.66 906.12,306.44 904.11,304.26 902.08,302.11 900.00,300.00 897.89,297.92 895.74,295.89 893.56,293.88 891.34,291.92 889.08,290.00 886.80,288.11 884.48,286.27 882.13,284.47 879.75,282.71 877.34,280.99 874.90,279.31 872.43,277.67 869.93,276.08 867.40,274.53 864.85,273.03 862.27,271.57 859.67,270.16 857.04,268.79 854.39,267.47 851.72,266.19 849.03,264.97 846.31,263.79 843.57,262.65 840.82,261.57 838.04,260.53 835.25,259.54 832.44,258.60 829.62,257.71 826.78,256.87 823.92,256.08 821.06,255.34 818.18,254.64 815.28,254.00 812.38,253.41 809.47,252.87 806.55,252.38 803.62,251.95 800.68,251.56 797.74,251.22 794.79,250.94 791.84,250.71 788.88,250.53 785.92,250.40 782.96,250.32 780.00,250.29 777.04,250.32 774.08,250.40 771.12,250.53 768.16,250.71 765.21,250.94 762.26,251.22 759.32,251.56 756.38,251.95 753.45,252.38 750.53,252.87 747.62,253.41 744.72,254.00 741.82,254.64 738.94,255.34 736.08,256.08 733.22,256.87 730.38,257.71 727.56,258.60 724.75,259.54 721.96,260.53 719.18,261.57 716.43,262.65 713.69,263.79 710.97,264.97 708.28,266.19 705.61,267.47 702.96,268.79 700.33,270.16 697.73,271.57 695.15,273.03 692.60,274.53 690.07,276.08 687.57,277.67 685.10,279.31 682.66,280.99 680.25,282.71 677.87,284.47 675.52,286.27 673.20,288.11 670.92,290.00 668.66,291.92 666.44,293.88 664.26,295.89 662.11,297.92 660.00,300.00 657.92,302.11 655.89,304.26 653.88,306.44 651.92,308.66 650.00,310.92 648.11,313.20 646.27,315.52 644.47,317.87 642.71,320.25 640.99,322.66 639.31,325.10 637.67,327.57 636.08,330.07 634.53,332.60 633.03,335.15 631.57,337.73 630.16,340.33 628.79,342.96 627.47,345.61 626.19,348.28 624.97,350.97 623.79,353.69 622.65,356.43 621.57,359.18 620.53,361.96 619.54,364.75 618.60,367.56 617.71,370.38 616.87,373.22 616.08,376.08 615.34,378.94 614.64,381.82 614.00,384.72 613.41,387.62 612.87,390.53 612.38,393.45 611.95,396.38 611.56,399.32 611.22,402.26 610.94,405.21 610.71,408.16 610.53,411.12 610.40,414.08 610.32,417.04 610.29,420.00 610.32,422.96 610.40,425.92 610.53,428.88 610.71,431.84 610.94,434.79 611.22,437.74 611.56,440.68 611.95,443.62 612.38,446.55 612.87,449.47 613.41,452.38 614.00,455.28 614.64,458.18 615.34,461.06 616.08,463.92 616.87,466.78 617.71,469.62 618.60,472.44 619.54,475.25 620.53,478.04 621.57,480.82 622.65,483.57 623.79,486.31 624.97,489.03 626.19,491.72 627.47,494.39 628.79,497.04 630.16,499.67 631.57,502.27 633.03,504.85 634.53,507.40 636.08,509.93 637.67,512.43 639.31,514.90 640.99,517.34 642.71,519.75 644.47,522.13 646.27,524.48 648.11,526.80 650.00,529.08 651.92,531.34 653.88,533.56 655.89,535.74 657.92,537.89 660.00,540.00 662.11,542.08 664.26,544.11 666.44,546.12 668.66,548.08 670.92,550.00 673.20,551.89 675.52,553.73 677.87,555.53 680.25,557.29 682.66,559.01 685.10,560.69 687.57,562.33 690.07,563.92 692.60,565.47 695.15,566.97 697.73,568.43 700.33,569.84 702.96,571.21 705.61,572.53 708.28,573.81 710.97,575.03 713.69,576.21 716.43,577.35 719.18,578.43 721.96,579.47 724.75,580.46 727.56,581.40 730.38,582.29 733.22,583.13 736.08,583.92 738.94,584.66 741.82,585.36 744.72,586.00 747.62,586.59 750.53,587.13 753.45,587.62 756.38,588.05 759.32,588.44 762.26,588.78 765.21,589.06 768.16,589.29 771.12,589.47 774.08,589.60 777.04,589.68 780.00,589.71 782.96,589.68 785.92,589.60 788.88,589.47 791.84,589.29 794.79,589.06 797.74,588.78 800.68,588.44 803.62,588.05 806.55,587.62 809.47,587.13 812.38,586.59 815.28,586.00 818.18,585.36 821.06,584.66 823.92,583.92 826.78,583.13 829.62,582.29 832.44,581.40 835.25,580.46 838.04,579.47 840.82,578.43 843.57,577.35 846.31,576.21 849.03,575.03 851.72,573.81 854.39,572.53 857.04,571.21 859.67,569.84 862.27,568.43 864.85,566.97 867.40,565.47 869.93,563.92 872.43,562.33 874.90,560.69 877.34,559.01 879.75,557.29 882.13,555.53 884.48,553.73 886.80,551.89 889.08,550.00 891.34,548.08 893.56,546.12 895.74,544.11 897.89,542.08 900.00,540.00 902.08,537.89 904.11,535.74 906.12,533.56 908.08,531.34 910.00,529.08 911.89,526.80 913.73,524.48 915.53,522.13 917.29,519.75 919.01,517.34 920.69,514.90 922.33,512.43 923.92,509.93 925.47,507.40 926.97,504.85 928.43,502.27 929.84,499.67 931.21,497.04 932.53,494.39 933.81,491.72 935.03,489.03 936.21,486.31 937.35,483.57 938.43,480.82 939.47,478.04 940.46,475.25 941.40,472.44 942.29,469.62 943.13,466.78 943.92,463.92 944.66,461.06 945.36,458.18 946.00,455.28 946.59,452.38 947.13,449.47 947.62,446.55 948.05,443.62 948.44,440.68 948.78,437.74 949.06,434.79 949.29,431.84 949.47,428.88 949.60,425.92 949.68,422.96 949.71,420.00" stroke='#ff7f0e' stroke-width='3' fill='none' />
<polyline points="660.00,60.00 661.20,61.20 662.41,62.41 663.61,63.61 664.81,64.81 666.02,66.02 667.22,67.22 668.42,68.42 669.62,69.62 670.83,70.83 672.03,72.03 673.23,73.23 674.44,74.44 675.64,75.64 676.84,76.84 678.05,78.05 679.25,79.25 680.45,80.45 681.65,81.65 682.86,82.86 684.06,84.06 685.26,85.26 686.47,86.47 687.67,87.67 688.87,88.87 690.08,90.08 691.28,91.28 692.48,92.48 693.68,93.68 694.89,94.89 696.09,96.09 697.29,97.29 698.50,98.50 699.70,99.70 700.90,100.90 702.11,102.11 703.31,103.31 704.51,104.51 705.71,105.71 706.92,106.92 708.12,108.12 709.32,109.32 710.53,110.53 711.73,111.73 712.93,112.93 714.14,114.14 715.34,115.34 716.54,116.54 717.74,117.74 718.95,118.95 720.15,120.15 721.35,121.35 722.56,122.56 723.76,123.76 724.96,124.96 726.17,126.17 727.37,127.37 728.57,128.57 729.77,129.77 730.98,130.98 732.18,132.18 733.38,133.38 734.59,134.59 735.79,135.79 736.99,136.99 738.20,138.20 739.40,139.40 740.60,140.60 741.80,141.80 743.01,143.01 744.21,144.21 745.41,145.41 746.62,146.62 747.82,147.82 749.02,149.02 750.23,150.23 751.43,151.43 752.63,152.63 753.83,153.83 755.04,155.04 756.24,156.24 757.44,157.44 758.65,158.65 759.85,159.85 761.05,161.05 762.26,162.26 763.46,163.46 764.66,164.66 765.86,165.86 767.07,167.07 768.27,168.27 769.47,169.47 770.68,170.68 771.88,171.88 773.08,173.08 774.29,174.29 775.49,175.49 776.69,176.69 777.89,177.89 779.10,179.10 780.30,180.30 781.50,181.50 782.71,182.71 783.91,183.91 785.11,185.11 786.32,186.32 787.52,187.52 788.72,188.72 789.92,189.92 791.13,191.13 792.33,192.33 793.53,193.53 794.74,194.74 795.94,195.94 797.14,197.14 798.35,198.35 799.55,199.55 800.75,200.75 801.95,201.95 803.16,203.16 804.36,204.36 805.56,205.56 806.77,206.77 807.97,207.97 809.17,209.17 810.38,210.38 811.58,211.58 812.78,212.78 813.98,213.98 815.19,215.19 816.39,216.39 817.59,217.59 818.80,218.80 820.00,220.00 821.20,221.20 822.41,222.41 823.61,223.61 824.81,224.81 826.02,226.02 827.22,227.22 828.42,228.42 829.62,229.62 830.83,230.83 832.03,232.03 833.23,233.23 834.44,234.44 835.64,235.64 836.84,236.84 838.05,238.05 839.25,239.25 840.45,240.45 841.65,241.65 842.86,242.86 844.06,244.06 845.26,245.26 846.47,246.47 847.67,247.67 848.87,248.87 850.08,250.08 851.28,251.28 852.48,252.48 853.68,253.68 854.89,254.89 856.09,256.09 857.29,257.29 858.50,258.50 859.70,259.70 860.90,260.90 862.11,262.11 863.31,263.31 864.51,264.51 865.71,265.71 866.92,266.92 868.12,268.12 869.32,269.32 870.53,270.53 871.73,271.73 872.93,272.93 874.14,274.14 875.34,275.34 876.54,276.54 877.74,277.74 878.95,278.95 880.15,280.15 881.35,281.35 882.56,282.56 883.76,283.76 884.96,284.96 886.17,286.17 887.37,287.37 888.57,288.57 889.77,289.77 890.98,290.98 892.18,292.18 893.38,293.38 894.59,294.59 895.79,295.79 896.99,296.99 898.20,298.20 899.40,299.40 900.60,300.60 901.80,301.80 903.01,303.01 904.21,304.21 905.41,305.41 906.62,306.62 907.82,307.82 909.02,309.02 910.23,310.23 911.43,311.43 912.63,312.63 913.83,313.83 915.04,315.04 916.24,316.24 917.44,317.44 918.65,318.65 919.85,319.85 921.05,321.05 922.26,322.26 923.46,323.46 924.66,324.66 925.86,325.86 927.07,327.07 928.27,328.27 929.47,329.47 930.68,330.68 931.88,331.88 933.08,333.08 934.29,334.29 935.49,335.49 936.69,336.69 937.89,337.89 939.10,339.10 940.30,340.30 941.50,341.50 942.71,342.71 943.91,343.91 945.11,345.11 946.32,346.32 947.52,347.52 948.72,348.72 949.92,349.92 951.13,351.13 952.33,352.33 953.53,353.53 954.74,354.74 955.94,355.94 957.14,357.14 958.35,358.35 959.55,359.55 960.75,360.75 961.95,361.95 963.16,363.16 964.36,364.36 965.56,365.56 966.77,366.77 967.97,367.97 969.17,369.17 970.38,370.38 971.58,371.58 972.78,372.78 973.98,373.98 975.19,375.19 976.39,376.39 977.59,377.59 978.80,378.80 980.00,380.00 981.20,381.20 982.41,382.41 983.61,383.61 984.81,384.81 986.02,386.02 987.22,387.22 988.42,388.42 989.62,389.62 990.83,390.83 992.03,392.03 993.23,393.23 994.44,394.44 995.64,395.64 996.84,396.84 998.05,398.05 999.25,399.25 1000.45,400.45 1001.65,401.65 1002.86,402.86 1004.06,404.06 1005.26,405.26 1006.47,406.47 1007.67,407.67 1008.87,408.87 1010.08,410.08 1011.28,411.28 1012.48,412.48 1013.68,413.68 1014.89,414.89 1016.09,416.09 1017.29,417.29 1018.50,418.50 1019.70,419.70 1020.90,420.90 1022.11,422.11 1023.31,423.31 1024.51,424.51 1025.71,425.71 1026.92,426.92 1028.12,428.12 1029.32,429.32 1030.53,430.53 1031.73,431.73 1032.93,432.93 1034.14,434.14 1035.34,435.34 1036.54,436.54 1037.74,437.74 1038.95,438.95 1040.15,440.15 1041.35,441.35 1042.56,442.56 1043.76,443.76 1044.96,444.96 1046.17,446.17 1047.37,447.37 1048.57,448.57 1049.77,449.77 1050.98,450.98 1052.18,452.18 1053.38,453.38 1054.59,454.59 1055.79,455.79 1056.99,456.99 1058.20,458.20 1059.40,459.40 1060.60,460.60 1061.80,461.80 1063.01,463.01 1064.21,464.21 1065.41,465.41 1066.62,466.62 1067.82,467.82 1069.02,469.02 1070.23,470.23 1071.43,471.43 1072.63,472.63 1073.83,473.83 1075.04,475.04 1076.24,476.24 1077.44,477.44 1078.65,478.65 1079.85,479.85 1081.05,481.05 1082.26,482.26 1083.46,483.46 1084.66,484.66 1085.86,485.86 1087.07,487.07 1088.27,488.27 1089.47,489.47 1090.68,490.68 1091.88,491.88 1093.08,493.08 1094.29,494.29 1095.49,495.49 1096.69,496.69 1097.89,497.89 1099.10,499.10 1100.30,500.30 1101.50,501.50 1102.71,502.71 1103.91,503.91 1105.11,505.11 1106.32,506.32 1107.52,507.52 1108.72,508.72 1109.92,509.92 1111.13,511.13 1112.33,512.33 1113.53,513.53 1114.74,514.74 1115.94,515.94 1117.14,517.14 1118.35,518.35 1119.55,519.55 1120.75,520.75 1121.95,521.95 1123.16,523.16 1124.36,524.36 1125.56,525.56 1126.77,526.77 1127.97,527.97 1129.17,529.17 1130.38,530.38 1131.58,531.58 1132.78,532.78 1133.98,533.98 1135.19,535.19 1136.39,536.39 1137.59,537.59 1138.80,538.80 1140.00,540.00" stroke='#1f77b4' stroke-width='3' fill='none' />
<circle cx='157.44' cy='157.44' r='6' fill='#000000' />
<line x1='157.44' y1='157.44' x2='121.35' y2='-262.65' stroke='#d62728' stroke-width='3' marker-end='url(#arrow)' />
<line x1='157.44' y1='157.44' x2='373.44' y2='-58.56' stroke='#2ca02c' stroke-width='3' marker-end='url(#arrow)' />
<text x='-2.56' y='37.44' fill='#333333'>∇f has tangent component → f changes</text>
<circle cx='900.00' cy='300.00' r='6' fill='#000000' />
<line x1='900.00' y1='300.00' x2='1092.00' y2='108.00' stroke='#d62728' stroke-width='3' marker-end='url(#arrow)' />
<line x1='900.00' y1='300.00' x2='1140.00' y2='60.00' stroke='#2ca02c' stroke-width='3' marker-end='url(#arrow)' />
<text x='780.00' y='180.00' fill='#333333'>∇f ∥ ∇g → constrained critical point</text>
<text x='930' y='520' fill='#d62728'>∇f</text>
<text x='1010' y='550' fill='#2ca02c'>∇g</text>
</svg>