<svg xmlns='http://www.w3.org/2000/svg' width='800' height='600' viewBox='0 0 800 600'>
<defs>
<style><![CDATA[text { font-family: 'Helvetica Neue', Helvetica, Arial, sans-serif; font-size: 18px; }]]></style>
</defs>
<polyline points="640.00,450.00 639.93,444.24 639.73,438.48 639.40,432.73 638.93,426.98 638.33,421.24 637.59,415.51 636.72,409.78 635.72,404.07 634.58,398.38 633.32,392.70 631.92,387.03 630.38,381.39 628.72,375.77 626.93,370.17 625.01,364.59 622.96,359.04 620.77,353.52 618.46,348.02 616.03,342.56 613.46,337.13 610.78,331.74 607.96,326.38 605.02,321.06 601.96,315.78 598.78,310.54 595.47,305.34 592.04,300.18 588.50,295.07 584.83,290.01 581.05,285.00 577.15,280.04 573.14,275.13 569.02,270.27 564.78,265.47 560.43,260.72 555.97,256.03 551.40,251.40 546.72,246.83 541.94,242.32 537.06,237.88 532.07,233.50 526.98,229.19 521.80,224.94 516.51,220.76 511.13,216.65 505.65,212.62 500.08,208.65 494.42,204.76 488.67,200.95 482.83,197.21 476.90,193.54 470.89,189.96 464.80,186.45 458.63,183.02 452.37,179.68 446.04,176.42 439.64,173.24 433.16,170.14 426.62,167.13 420.00,164.21 413.32,161.38 406.57,158.63 399.76,155.97 392.88,153.40 385.95,150.92 378.96,148.53 371.92,146.23 364.83,144.03 357.68,141.92 350.49,139.90 343.25,137.98 335.97,136.15 328.64,134.42 321.28,132.78 313.88,131.24 306.45,129.80 298.98,128.46 291.48,127.21 283.96,126.06 276.41,125.01 268.83,124.06 261.24,123.21 253.62,122.46 245.99,121.81 238.35,121.26 230.69,120.80 223.03,120.45 215.36,120.20 207.68,120.05 200.00,120.00 192.32,120.05 184.64,120.20 176.97,120.45 169.31,120.80 161.65,121.26 154.01,121.81 146.38,122.46 138.76,123.21 131.17,124.06 123.59,125.01 116.04,126.06 108.52,127.21 101.02,128.46 93.55,129.80 86.12,131.24 78.72,132.78 71.36,134.42 64.03,136.15 56.75,137.98 49.51,139.90 42.32,141.92 35.17,144.03 28.08,146.23 21.04,148.53 14.05,150.92 7.12,153.40 0.24,155.97 -6.57,158.63 -13.32,161.38 -20.00,164.21 -26.62,167.13 -33.16,170.14 -39.64,173.24 -46.04,176.42 -52.37,179.68 -58.63,183.02 -64.80,186.45 -70.89,189.96 -76.90,193.54 -82.83,197.21 -88.67,200.95 -94.42,204.76 -100.08,208.65 -105.65,212.62 -111.13,216.65 -116.51,220.76 -121.80,224.94 -126.98,229.19 -132.07,233.50 -137.06,237.88 -141.94,242.32 -146.72,246.83 -151.40,251.40 -155.97,256.03 -160.43,260.72 -164.78,265.47 -169.02,270.27 -173.14,275.13 -177.15,280.04 -181.05,285.00 -184.83,290.01 -188.50,295.07 -192.04,300.18 -195.47,305.34 -198.78,310.54 -201.96,315.78 -205.02,321.06 -207.96,326.38 -210.78,331.74 -213.46,337.13 -216.03,342.56 -218.46,348.02 -220.77,353.52 -222.96,359.04 -225.01,364.59 -226.93,370.17 -228.72,375.77 -230.38,381.39 -231.92,387.03 -233.32,392.70 -234.58,398.38 -235.72,404.07 -236.72,409.78 -237.59,415.51 -238.33,421.24 -238.93,426.98 -239.40,432.73 -239.73,438.48 -239.93,444.24 -240.00,450.00 -239.93,455.76 -239.73,461.52 -239.40,467.27 -238.93,473.02 -238.33,478.76 -237.59,484.49 -236.72,490.22 -235.72,495.93 -234.58,501.62 -233.32,507.30 -231.92,512.97 -230.38,518.61 -228.72,524.23 -226.93,529.83 -225.01,535.41 -222.96,540.96 -220.77,546.48 -218.46,551.98 -216.03,557.44 -213.46,562.87 -210.78,568.26 -207.96,573.62 -205.02,578.94 -201.96,584.22 -198.78,589.46 -195.47,594.66 -192.04,599.82 -188.50,604.93 -184.83,609.99 -181.05,615.00 -177.15,619.96 -173.14,624.87 -169.02,629.73 -164.78,634.53 -160.43,639.28 -155.97,643.97 -151.40,648.60 -146.72,653.17 -141.94,657.68 -137.06,662.12 -132.07,666.50 -126.98,670.81 -121.80,675.06 -116.51,679.24 -111.13,683.35 -105.65,687.38 -100.08,691.35 -94.42,695.24 -88.67,699.05 -82.83,702.79 -76.90,706.46 -70.89,710.04 -64.80,713.55 -58.63,716.98 -52.37,720.32 -46.04,723.58 -39.64,726.76 -33.16,729.86 -26.62,732.87 -20.00,735.79 -13.32,738.62 -6.57,741.37 0.24,744.03 7.12,746.60 14.05,749.08 21.04,751.47 28.08,753.77 35.17,755.97 42.32,758.08 49.51,760.10 56.75,762.02 64.03,763.85 71.36,765.58 78.72,767.22 86.12,768.76 93.55,770.20 101.02,771.54 108.52,772.79 116.04,773.94 123.59,774.99 131.17,775.94 138.76,776.79 146.38,777.54 154.01,778.19 161.65,778.74 169.31,779.20 176.97,779.55 184.64,779.80 192.32,779.95 200.00,780.00 207.68,779.95 215.36,779.80 223.03,779.55 230.69,779.20 238.35,778.74 245.99,778.19 253.62,777.54 261.24,776.79 268.83,775.94 276.41,774.99 283.96,773.94 291.48,772.79 298.98,771.54 306.45,770.20 313.88,768.76 321.28,767.22 328.64,765.58 335.97,763.85 343.25,762.02 350.49,760.10 357.68,758.08 364.83,755.97 371.92,753.77 378.96,751.47 385.95,749.08 392.88,746.60 399.76,744.03 406.57,741.37 413.32,738.62 420.00,735.79 426.62,732.87 433.16,729.86 439.64,726.76 446.04,723.58 452.37,720.32 458.63,716.98 464.80,713.55 470.89,710.04 476.90,706.46 482.83,702.79 488.67,699.05 494.42,695.24 500.08,691.35 505.65,687.38 511.13,683.35 516.51,679.24 521.80,675.06 526.98,670.81 532.07,666.50 537.06,662.12 541.94,657.68 546.72,653.17 551.40,648.60 555.97,643.97 560.43,639.28 564.78,634.53 569.02,629.73 573.14,624.87 577.15,619.96 581.05,615.00 584.83,609.99 588.50,604.93 592.04,599.82 595.47,594.66 598.78,589.46 601.96,584.22 605.02,578.94 607.96,573.62 610.78,568.26 613.46,562.87 616.03,557.44 618.46,551.98 620.77,546.48 622.96,540.96 625.01,535.41 626.93,529.83 628.72,524.23 630.38,518.61 631.92,512.97 633.32,507.30 634.58,501.62 635.72,495.93 636.72,490.22 637.59,484.49 638.33,478.76 638.93,473.02 639.40,467.27 639.73,461.52 639.93,455.76 640.00,450.00" stroke='#ff7f0e' stroke-width='2.5' fill='none' stroke-dasharray='8 6' />
<polyline points="482.84,450.00 482.80,446.30 482.67,442.60 482.46,438.90 482.15,435.20 481.77,431.51 481.29,427.83 480.73,424.15 480.09,420.48 479.36,416.82 478.55,413.16 477.65,409.52 476.66,405.90 475.59,402.28 474.44,398.68 473.21,395.10 471.89,391.53 470.48,387.98 469.00,384.45 467.43,380.94 465.79,377.45 464.06,373.98 462.25,370.53 460.36,367.11 458.39,363.72 456.34,360.35 454.22,357.01 452.01,353.69 449.74,350.41 447.38,347.16 444.95,343.93 442.44,340.74 439.86,337.59 437.21,334.46 434.49,331.38 431.69,328.33 428.82,325.31 425.89,322.34 422.88,319.40 419.81,316.50 416.67,313.64 413.46,310.83 410.19,308.06 406.86,305.33 403.46,302.64 400.00,300.00 396.48,297.40 392.90,294.86 389.26,292.36 385.56,289.90 381.81,287.50 378.00,285.14 374.14,282.84 370.22,280.58 366.25,278.38 362.23,276.23 358.16,274.13 354.05,272.09 349.88,270.10 345.67,268.17 341.42,266.29 337.12,264.47 332.79,262.70 328.41,260.99 323.99,259.34 319.53,257.74 315.04,256.21 310.52,254.73 305.95,253.31 301.36,251.96 296.74,250.66 292.08,249.43 287.40,248.25 282.70,247.14 277.96,246.09 273.21,245.10 268.43,244.17 263.63,243.30 258.81,242.50 253.97,241.77 249.12,241.09 244.25,240.48 239.36,239.93 234.47,239.45 229.57,239.03 224.65,238.68 219.73,238.38 214.80,238.16 209.87,238.00 204.94,237.90 200.00,237.87 195.06,237.90 190.13,238.00 185.20,238.16 180.27,238.38 175.35,238.68 170.43,239.03 165.53,239.45 160.64,239.93 155.75,240.48 150.88,241.09 146.03,241.77 141.19,242.50 136.37,243.30 131.57,244.17 126.79,245.10 122.04,246.09 117.30,247.14 112.60,248.25 107.92,249.43 103.26,250.66 98.64,251.96 94.05,253.31 89.48,254.73 84.96,256.21 80.47,257.74 76.01,259.34 71.59,260.99 67.21,262.70 62.88,264.47 58.58,266.29 54.33,268.17 50.12,270.10 45.95,272.09 41.84,274.13 37.77,276.23 33.75,278.38 29.78,280.58 25.86,282.84 22.00,285.14 18.19,287.50 14.44,289.90 10.74,292.36 7.10,294.86 3.52,297.40 0.00,300.00 -3.46,302.64 -6.86,305.33 -10.19,308.06 -13.46,310.83 -16.67,313.64 -19.81,316.50 -22.88,319.40 -25.89,322.34 -28.82,325.31 -31.69,328.33 -34.49,331.38 -37.21,334.46 -39.86,337.59 -42.44,340.74 -44.95,343.93 -47.38,347.16 -49.74,350.41 -52.01,353.69 -54.22,357.01 -56.34,360.35 -58.39,363.72 -60.36,367.11 -62.25,370.53 -64.06,373.98 -65.79,377.45 -67.43,380.94 -69.00,384.45 -70.48,387.98 -71.89,391.53 -73.21,395.10 -74.44,398.68 -75.59,402.28 -76.66,405.90 -77.65,409.52 -78.55,413.16 -79.36,416.82 -80.09,420.48 -80.73,424.15 -81.29,427.83 -81.77,431.51 -82.15,435.20 -82.46,438.90 -82.67,442.60 -82.80,446.30 -82.84,450.00 -82.80,453.70 -82.67,457.40 -82.46,461.10 -82.15,464.80 -81.77,468.49 -81.29,472.17 -80.73,475.85 -80.09,479.52 -79.36,483.18 -78.55,486.84 -77.65,490.48 -76.66,494.10 -75.59,497.72 -74.44,501.32 -73.21,504.90 -71.89,508.47 -70.48,512.02 -69.00,515.55 -67.43,519.06 -65.79,522.55 -64.06,526.02 -62.25,529.47 -60.36,532.89 -58.39,536.28 -56.34,539.65 -54.22,542.99 -52.01,546.31 -49.74,549.59 -47.38,552.84 -44.95,556.07 -42.44,559.26 -39.86,562.41 -37.21,565.54 -34.49,568.62 -31.69,571.67 -28.82,574.69 -25.89,577.66 -22.88,580.60 -19.81,583.50 -16.67,586.36 -13.46,589.17 -10.19,591.94 -6.86,594.67 -3.46,597.36 -0.00,600.00 3.52,602.60 7.10,605.14 10.74,607.64 14.44,610.10 18.19,612.50 22.00,614.86 25.86,617.16 29.78,619.42 33.75,621.62 37.77,623.77 41.84,625.87 45.95,627.91 50.12,629.90 54.33,631.83 58.58,633.71 62.88,635.53 67.21,637.30 71.59,639.01 76.01,640.66 80.47,642.26 84.96,643.79 89.48,645.27 94.05,646.69 98.64,648.04 103.26,649.34 107.92,650.57 112.60,651.75 117.30,652.86 122.04,653.91 126.79,654.90 131.57,655.83 136.37,656.70 141.19,657.50 146.03,658.23 150.88,658.91 155.75,659.52 160.64,660.07 165.53,660.55 170.43,660.97 175.35,661.32 180.27,661.62 185.20,661.84 190.13,662.00 195.06,662.10 200.00,662.13 204.94,662.10 209.87,662.00 214.80,661.84 219.73,661.62 224.65,661.32 229.57,660.97 234.47,660.55 239.36,660.07 244.25,659.52 249.12,658.91 253.97,658.23 258.81,657.50 263.63,656.70 268.43,655.83 273.21,654.90 277.96,653.91 282.70,652.86 287.40,651.75 292.08,650.57 296.74,649.34 301.36,648.04 305.95,646.69 310.52,645.27 315.04,643.79 319.53,642.26 323.99,640.66 328.41,639.01 332.79,637.30 337.12,635.53 341.42,633.71 345.67,631.83 349.88,629.90 354.05,627.91 358.16,625.87 362.23,623.77 366.25,621.62 370.22,619.42 374.14,617.16 378.00,614.86 381.81,612.50 385.56,610.10 389.26,607.64 392.90,605.14 396.48,602.60 400.00,600.00 403.46,597.36 406.86,594.67 410.19,591.94 413.46,589.17 416.67,586.36 419.81,583.50 422.88,580.60 425.89,577.66 428.82,574.69 431.69,571.67 434.49,568.62 437.21,565.54 439.86,562.41 442.44,559.26 444.95,556.07 447.38,552.84 449.74,549.59 452.01,546.31 454.22,542.99 456.34,539.65 458.39,536.28 460.36,532.89 462.25,529.47 464.06,526.02 465.79,522.55 467.43,519.06 469.00,515.55 470.48,512.02 471.89,508.47 473.21,504.90 474.44,501.32 475.59,497.72 476.66,494.10 477.65,490.48 478.55,486.84 479.36,483.18 480.09,479.52 480.73,475.85 481.29,472.17 481.77,468.49 482.15,464.80 482.46,461.10 482.67,457.40 482.80,453.70 482.84,450.00" stroke='#d62728' stroke-width='3' fill='none' />
<polyline points="0.00,0.00 2.01,1.50 4.01,3.01 6.02,4.51 8.02,6.02 10.03,7.52 12.03,9.02 14.04,10.53 16.04,12.03 18.05,13.53 20.05,15.04 22.06,16.54 24.06,18.05 26.07,19.55 28.07,21.05 30.08,22.56 32.08,24.06 34.09,25.56 36.09,27.07 38.10,28.57 40.10,30.08 42.11,31.58 44.11,33.08 46.12,34.59 48.12,36.09 50.13,37.59 52.13,39.10 54.14,40.60 56.14,42.11 58.15,43.61 60.15,45.11 62.16,46.62 64.16,48.12 66.17,49.62 68.17,51.13 70.18,52.63 72.18,54.14 74.19,55.64 76.19,57.14 78.20,58.65 80.20,60.15 82.21,61.65 84.21,63.16 86.22,64.66 88.22,66.17 90.23,67.67 92.23,69.17 94.24,70.68 96.24,72.18 98.25,73.68 100.25,75.19 102.26,76.69 104.26,78.20 106.27,79.70 108.27,81.20 110.28,82.71 112.28,84.21 114.29,85.71 116.29,87.22 118.30,88.72 120.30,90.23 122.31,91.73 124.31,93.23 126.32,94.74 128.32,96.24 130.33,97.74 132.33,99.25 134.34,100.75 136.34,102.26 138.35,103.76 140.35,105.26 142.36,106.77 144.36,108.27 146.37,109.77 148.37,111.28 150.38,112.78 152.38,114.29 154.39,115.79 156.39,117.29 158.40,118.80 160.40,120.30 162.41,121.80 164.41,123.31 166.42,124.81 168.42,126.32 170.43,127.82 172.43,129.32 174.44,130.83 176.44,132.33 178.45,133.83 180.45,135.34 182.46,136.84 184.46,138.35 186.47,139.85 188.47,141.35 190.48,142.86 192.48,144.36 194.49,145.86 196.49,147.37 198.50,148.87 200.50,150.38 202.51,151.88 204.51,153.38 206.52,154.89 208.52,156.39 210.53,157.89 212.53,159.40 214.54,160.90 216.54,162.41 218.55,163.91 220.55,165.41 222.56,166.92 224.56,168.42 226.57,169.92 228.57,171.43 230.58,172.93 232.58,174.44 234.59,175.94 236.59,177.44 238.60,178.95 240.60,180.45 242.61,181.95 244.61,183.46 246.62,184.96 248.62,186.47 250.63,187.97 252.63,189.47 254.64,190.98 256.64,192.48 258.65,193.98 260.65,195.49 262.66,196.99 264.66,198.50 266.67,200.00 268.67,201.50 270.68,203.01 272.68,204.51 274.69,206.02 276.69,207.52 278.70,209.02 280.70,210.53 282.71,212.03 284.71,213.53 286.72,215.04 288.72,216.54 290.73,218.05 292.73,219.55 294.74,221.05 296.74,222.56 298.75,224.06 300.75,225.56 302.76,227.07 304.76,228.57 306.77,230.08 308.77,231.58 310.78,233.08 312.78,234.59 314.79,236.09 316.79,237.59 318.80,239.10 320.80,240.60 322.81,242.11 324.81,243.61 326.82,245.11 328.82,246.62 330.83,248.12 332.83,249.62 334.84,251.13 336.84,252.63 338.85,254.14 340.85,255.64 342.86,257.14 344.86,258.65 346.87,260.15 348.87,261.65 350.88,263.16 352.88,264.66 354.89,266.17 356.89,267.67 358.90,269.17 360.90,270.68 362.91,272.18 364.91,273.68 366.92,275.19 368.92,276.69 370.93,278.20 372.93,279.70 374.94,281.20 376.94,282.71 378.95,284.21 380.95,285.71 382.96,287.22 384.96,288.72 386.97,290.23 388.97,291.73 390.98,293.23 392.98,294.74 394.99,296.24 396.99,297.74 399.00,299.25 401.00,300.75 403.01,302.26 405.01,303.76 407.02,305.26 409.02,306.77 411.03,308.27 413.03,309.77 415.04,311.28 417.04,312.78 419.05,314.29 421.05,315.79 423.06,317.29 425.06,318.80 427.07,320.30 429.07,321.80 431.08,323.31 433.08,324.81 435.09,326.32 437.09,327.82 439.10,329.32 441.10,330.83 443.11,332.33 445.11,333.83 447.12,335.34 449.12,336.84 451.13,338.35 453.13,339.85 455.14,341.35 457.14,342.86 459.15,344.36 461.15,345.86 463.16,347.37 465.16,348.87 467.17,350.38 469.17,351.88 471.18,353.38 473.18,354.89 475.19,356.39 477.19,357.89 479.20,359.40 481.20,360.90 483.21,362.41 485.21,363.91 487.22,365.41 489.22,366.92 491.23,368.42 493.23,369.92 495.24,371.43 497.24,372.93 499.25,374.44 501.25,375.94 503.26,377.44 505.26,378.95 507.27,380.45 509.27,381.95 511.28,383.46 513.28,384.96 515.29,386.47 517.29,387.97 519.30,389.47 521.30,390.98 523.31,392.48 525.31,393.98 527.32,395.49 529.32,396.99 531.33,398.50 533.33,400.00 535.34,401.50 537.34,403.01 539.35,404.51 541.35,406.02 543.36,407.52 545.36,409.02 547.37,410.53 549.37,412.03 551.38,413.53 553.38,415.04 555.39,416.54 557.39,418.05 559.40,419.55 561.40,421.05 563.41,422.56 565.41,424.06 567.42,425.56 569.42,427.07 571.43,428.57 573.43,430.08 575.44,431.58 577.44,433.08 579.45,434.59 581.45,436.09 583.46,437.59 585.46,439.10 587.47,440.60 589.47,442.11 591.48,443.61 593.48,445.11 595.49,446.62 597.49,448.12 599.50,449.62 601.50,451.13 603.51,452.63 605.51,454.14 607.52,455.64 609.52,457.14 611.53,458.65 613.53,460.15 615.54,461.65 617.54,463.16 619.55,464.66 621.55,466.17 623.56,467.67 625.56,469.17 627.57,470.68 629.57,472.18 631.58,473.68 633.58,475.19 635.59,476.69 637.59,478.20 639.60,479.70 641.60,481.20 643.61,482.71 645.61,484.21 647.62,485.71 649.62,487.22 651.63,488.72 653.63,490.23 655.64,491.73 657.64,493.23 659.65,494.74 661.65,496.24 663.66,497.74 665.66,499.25 667.67,500.75 669.67,502.26 671.68,503.76 673.68,505.26 675.69,506.77 677.69,508.27 679.70,509.77 681.70,511.28 683.71,512.78 685.71,514.29 687.72,515.79 689.72,517.29 691.73,518.80 693.73,520.30 695.74,521.80 697.74,523.31 699.75,524.81 701.75,526.32 703.76,527.82 705.76,529.32 707.77,530.83 709.77,532.33 711.78,533.83 713.78,535.34 715.79,536.84 717.79,538.35 719.80,539.85 721.80,541.35 723.81,542.86 725.81,544.36 727.82,545.86 729.82,547.37 731.83,548.87 733.83,550.38 735.84,551.88 737.84,553.38 739.85,554.89 741.85,556.39 743.86,557.89 745.86,559.40 747.87,560.90 749.87,562.41 751.88,563.91 753.88,565.41 755.89,566.92 757.89,568.42 759.90,569.92 761.90,571.43 763.91,572.93 765.91,574.44 767.92,575.94 769.92,577.44 771.93,578.95 773.93,580.45 775.94,581.95 777.94,583.46 779.95,584.96 781.95,586.47 783.96,587.97 785.96,589.47 787.97,590.98 789.97,592.48 791.98,593.98 793.98,595.49 795.99,596.99 797.99,598.50 800.00,600.00" stroke='#1f77b4' stroke-width='3' fill='none' />
<text x='520' y='80' fill='#1f77b4'>Constraint x + y = 2</text>
<text x='460' y='170' fill='#d62728'>Tangency level set</text>
<text x='120' y='520' fill='#ff7f0e'>Intersecting level set</text>
<circle cx='400.00' cy='300.00' r='6' fill='#d62728' />
<text x='410.00' y='290.00' fill='#d62728'>Tangency</text>
<circle cx='162.41' cy='121.80' r='6' fill='#ff7f0e' />
<text x='92.41' y='109.80' fill='#ff7f0e'>Intersection</text>
<circle cx='637.59' cy='478.20' r='6' fill='#ff7f0e' />
<text x='567.59' y='466.20' fill='#ff7f0e'>Intersection</text>
<text x='40' y='60' fill='#333333' font-size='26'>Intersection vs Tangency</text>
<rect x='0' y='0' width='800' height='600' fill='none' stroke='#dddddd' stroke-width='1' />
</svg>