<svg xmlns='http://www.w3.org/2000/svg' width='800' height='600' viewBox='0 0 800 600'>
<defs>
<style><![CDATA[text { font-family: 'Helvetica Neue', Helvetica, Arial, sans-serif; font-size: 18px; }]]></style>
</defs>
<polyline points="698.14,300.00 698.10,296.10 697.96,292.20 697.73,288.30 697.42,284.40 697.01,280.51 696.51,276.63 695.92,272.75 695.24,268.88 694.47,265.02 693.61,261.17 692.66,257.33 691.63,253.51 690.50,249.70 689.29,245.90 687.98,242.13 686.59,238.37 685.11,234.62 683.55,230.90 681.90,227.20 680.16,223.52 678.34,219.87 676.43,216.24 674.44,212.63 672.37,209.05 670.21,205.50 667.97,201.98 665.65,198.48 663.24,195.02 660.76,191.59 658.20,188.20 655.56,184.83 652.84,181.51 650.04,178.22 647.17,174.96 644.22,171.74 641.20,168.57 638.11,165.43 634.94,162.33 631.70,159.28 628.39,156.27 625.01,153.30 621.56,150.38 618.05,147.50 614.47,144.67 610.82,141.89 607.11,139.15 603.33,136.46 599.50,133.83 595.60,131.24 591.64,128.71 587.63,126.22 583.55,123.80 579.43,121.42 575.24,119.10 571.01,116.83 566.72,114.62 562.38,112.47 557.99,110.37 553.55,108.33 549.07,106.35 544.54,104.43 539.97,102.57 535.35,100.76 530.70,99.02 526.00,97.34 521.27,95.73 516.49,94.17 511.69,92.68 506.84,91.25 501.97,89.88 497.07,88.58 492.13,87.34 487.17,86.16 482.18,85.06 477.16,84.01 472.13,83.04 467.07,82.12 461.99,81.28 456.89,80.50 451.77,79.79 446.64,79.15 441.49,78.57 436.33,78.06 431.16,77.62 425.98,77.24 420.80,76.94 415.60,76.70 410.41,76.53 405.20,76.43 400.00,76.39 394.80,76.43 389.59,76.53 384.40,76.70 379.20,76.94 374.02,77.24 368.84,77.62 363.67,78.06 358.51,78.57 353.36,79.15 348.23,79.79 343.11,80.50 338.01,81.28 332.93,82.12 327.87,83.04 322.84,84.01 317.82,85.06 312.83,86.16 307.87,87.34 302.93,88.58 298.03,89.88 293.16,91.25 288.31,92.68 283.51,94.17 278.73,95.73 274.00,97.34 269.30,99.02 264.65,100.76 260.03,102.57 255.46,104.43 250.93,106.35 246.45,108.33 242.01,110.37 237.62,112.47 233.28,114.62 228.99,116.83 224.76,119.10 220.57,121.42 216.45,123.80 212.37,126.22 208.36,128.71 204.40,131.24 200.50,133.83 196.67,136.46 192.89,139.15 189.18,141.89 185.53,144.67 181.95,147.50 178.44,150.38 174.99,153.30 171.61,156.27 168.30,159.28 165.06,162.33 161.89,165.43 158.80,168.57 155.78,171.74 152.83,174.96 149.96,178.22 147.16,181.51 144.44,184.83 141.80,188.20 139.24,191.59 136.76,195.02 134.35,198.48 132.03,201.98 129.79,205.50 127.63,209.05 125.56,212.63 123.57,216.24 121.66,219.87 119.84,223.52 118.10,227.20 116.45,230.90 114.89,234.62 113.41,238.37 112.02,242.13 110.71,245.90 109.50,249.70 108.37,253.51 107.34,257.33 106.39,261.17 105.53,265.02 104.76,268.88 104.08,272.75 103.49,276.63 102.99,280.51 102.58,284.40 102.27,288.30 102.04,292.20 101.90,296.10 101.86,300.00 101.90,303.90 102.04,307.80 102.27,311.70 102.58,315.60 102.99,319.49 103.49,323.37 104.08,327.25 104.76,331.12 105.53,334.98 106.39,338.83 107.34,342.67 108.37,346.49 109.50,350.30 110.71,354.10 112.02,357.87 113.41,361.63 114.89,365.38 116.45,369.10 118.10,372.80 119.84,376.48 121.66,380.13 123.57,383.76 125.56,387.37 127.63,390.95 129.79,394.50 132.03,398.02 134.35,401.52 136.76,404.98 139.24,408.41 141.80,411.80 144.44,415.17 147.16,418.49 149.96,421.78 152.83,425.04 155.78,428.26 158.80,431.43 161.89,434.57 165.06,437.67 168.30,440.72 171.61,443.73 174.99,446.70 178.44,449.62 181.95,452.50 185.53,455.33 189.18,458.11 192.89,460.85 196.67,463.54 200.50,466.17 204.40,468.76 208.36,471.29 212.37,473.78 216.45,476.20 220.57,478.58 224.76,480.90 228.99,483.17 233.28,485.38 237.62,487.53 242.01,489.63 246.45,491.67 250.93,493.65 255.46,495.57 260.03,497.43 264.65,499.24 269.30,500.98 274.00,502.66 278.73,504.27 283.51,505.83 288.31,507.32 293.16,508.75 298.03,510.12 302.93,511.42 307.87,512.66 312.83,513.84 317.82,514.94 322.84,515.99 327.87,516.96 332.93,517.88 338.01,518.72 343.11,519.50 348.23,520.21 353.36,520.85 358.51,521.43 363.67,521.94 368.84,522.38 374.02,522.76 379.20,523.06 384.40,523.30 389.59,523.47 394.80,523.57 400.00,523.61 405.20,523.57 410.41,523.47 415.60,523.30 420.80,523.06 425.98,522.76 431.16,522.38 436.33,521.94 441.49,521.43 446.64,520.85 451.77,520.21 456.89,519.50 461.99,518.72 467.07,517.88 472.13,516.96 477.16,515.99 482.18,514.94 487.17,513.84 492.13,512.66 497.07,511.42 501.97,510.12 506.84,508.75 511.69,507.32 516.49,505.83 521.27,504.27 526.00,502.66 530.70,500.98 535.35,499.24 539.97,497.43 544.54,495.57 549.07,493.65 553.55,491.67 557.99,489.63 562.38,487.53 566.72,485.38 571.01,483.17 575.24,480.90 579.43,478.58 583.55,476.20 587.63,473.78 591.64,471.29 595.60,468.76 599.50,466.17 603.33,463.54 607.11,460.85 610.82,458.11 614.47,455.33 618.05,452.50 621.56,449.62 625.01,446.70 628.39,443.73 631.70,440.72 634.94,437.67 638.11,434.57 641.20,431.43 644.22,428.26 647.17,425.04 650.04,421.78 652.84,418.49 655.56,415.17 658.20,411.80 660.76,408.41 663.24,404.98 665.65,401.52 667.97,398.02 670.21,394.50 672.37,390.95 674.44,387.37 676.43,383.76 678.34,380.13 680.16,376.48 681.90,372.80 683.55,369.10 685.11,365.38 686.59,361.63 687.98,357.87 689.29,354.10 690.50,350.30 691.63,346.49 692.66,342.67 693.61,338.83 694.47,334.98 695.24,331.12 695.92,327.25 696.51,323.37 697.01,319.49 697.42,315.60 697.73,311.70 697.96,307.80 698.10,303.90 698.14,300.00" stroke='#1f77b4' stroke-width='3' fill='none' />
<polyline points="0.00,-100.00 2.01,-99.25 4.01,-98.50 6.02,-97.74 8.02,-96.99 10.03,-96.24 12.03,-95.49 14.04,-94.74 16.04,-93.98 18.05,-93.23 20.05,-92.48 22.06,-91.73 24.06,-90.98 26.07,-90.23 28.07,-89.47 30.08,-88.72 32.08,-87.97 34.09,-87.22 36.09,-86.47 38.10,-85.71 40.10,-84.96 42.11,-84.21 44.11,-83.46 46.12,-82.71 48.12,-81.95 50.13,-81.20 52.13,-80.45 54.14,-79.70 56.14,-78.95 58.15,-78.20 60.15,-77.44 62.16,-76.69 64.16,-75.94 66.17,-75.19 68.17,-74.44 70.18,-73.68 72.18,-72.93 74.19,-72.18 76.19,-71.43 78.20,-70.68 80.20,-69.92 82.21,-69.17 84.21,-68.42 86.22,-67.67 88.22,-66.92 90.23,-66.17 92.23,-65.41 94.24,-64.66 96.24,-63.91 98.25,-63.16 100.25,-62.41 102.26,-61.65 104.26,-60.90 106.27,-60.15 108.27,-59.40 110.28,-58.65 112.28,-57.89 114.29,-57.14 116.29,-56.39 118.30,-55.64 120.30,-54.89 122.31,-54.14 124.31,-53.38 126.32,-52.63 128.32,-51.88 130.33,-51.13 132.33,-50.38 134.34,-49.62 136.34,-48.87 138.35,-48.12 140.35,-47.37 142.36,-46.62 144.36,-45.86 146.37,-45.11 148.37,-44.36 150.38,-43.61 152.38,-42.86 154.39,-42.11 156.39,-41.35 158.40,-40.60 160.40,-39.85 162.41,-39.10 164.41,-38.35 166.42,-37.59 168.42,-36.84 170.43,-36.09 172.43,-35.34 174.44,-34.59 176.44,-33.83 178.45,-33.08 180.45,-32.33 182.46,-31.58 184.46,-30.83 186.47,-30.08 188.47,-29.32 190.48,-28.57 192.48,-27.82 194.49,-27.07 196.49,-26.32 198.50,-25.56 200.50,-24.81 202.51,-24.06 204.51,-23.31 206.52,-22.56 208.52,-21.80 210.53,-21.05 212.53,-20.30 214.54,-19.55 216.54,-18.80 218.55,-18.05 220.55,-17.29 222.56,-16.54 224.56,-15.79 226.57,-15.04 228.57,-14.29 230.58,-13.53 232.58,-12.78 234.59,-12.03 236.59,-11.28 238.60,-10.53 240.60,-9.77 242.61,-9.02 244.61,-8.27 246.62,-7.52 248.62,-6.77 250.63,-6.02 252.63,-5.26 254.64,-4.51 256.64,-3.76 258.65,-3.01 260.65,-2.26 262.66,-1.50 264.66,-0.75 266.67,0.00 268.67,0.75 270.68,1.50 272.68,2.26 274.69,3.01 276.69,3.76 278.70,4.51 280.70,5.26 282.71,6.02 284.71,6.77 286.72,7.52 288.72,8.27 290.73,9.02 292.73,9.77 294.74,10.53 296.74,11.28 298.75,12.03 300.75,12.78 302.76,13.53 304.76,14.29 306.77,15.04 308.77,15.79 310.78,16.54 312.78,17.29 314.79,18.05 316.79,18.80 318.80,19.55 320.80,20.30 322.81,21.05 324.81,21.80 326.82,22.56 328.82,23.31 330.83,24.06 332.83,24.81 334.84,25.56 336.84,26.32 338.85,27.07 340.85,27.82 342.86,28.57 344.86,29.32 346.87,30.08 348.87,30.83 350.88,31.58 352.88,32.33 354.89,33.08 356.89,33.83 358.90,34.59 360.90,35.34 362.91,36.09 364.91,36.84 366.92,37.59 368.92,38.35 370.93,39.10 372.93,39.85 374.94,40.60 376.94,41.35 378.95,42.11 380.95,42.86 382.96,43.61 384.96,44.36 386.97,45.11 388.97,45.86 390.98,46.62 392.98,47.37 394.99,48.12 396.99,48.87 399.00,49.62 401.00,50.38 403.01,51.13 405.01,51.88 407.02,52.63 409.02,53.38 411.03,54.14 413.03,54.89 415.04,55.64 417.04,56.39 419.05,57.14 421.05,57.89 423.06,58.65 425.06,59.40 427.07,60.15 429.07,60.90 431.08,61.65 433.08,62.41 435.09,63.16 437.09,63.91 439.10,64.66 441.10,65.41 443.11,66.17 445.11,66.92 447.12,67.67 449.12,68.42 451.13,69.17 453.13,69.92 455.14,70.68 457.14,71.43 459.15,72.18 461.15,72.93 463.16,73.68 465.16,74.44 467.17,75.19 469.17,75.94 471.18,76.69 473.18,77.44 475.19,78.20 477.19,78.95 479.20,79.70 481.20,80.45 483.21,81.20 485.21,81.95 487.22,82.71 489.22,83.46 491.23,84.21 493.23,84.96 495.24,85.71 497.24,86.47 499.25,87.22 501.25,87.97 503.26,88.72 505.26,89.47 507.27,90.23 509.27,90.98 511.28,91.73 513.28,92.48 515.29,93.23 517.29,93.98 519.30,94.74 521.30,95.49 523.31,96.24 525.31,96.99 527.32,97.74 529.32,98.50 531.33,99.25 533.33,100.00 535.34,100.75 537.34,101.50 539.35,102.26 541.35,103.01 543.36,103.76 545.36,104.51 547.37,105.26 549.37,106.02 551.38,106.77 553.38,107.52 555.39,108.27 557.39,109.02 559.40,109.77 561.40,110.53 563.41,111.28 565.41,112.03 567.42,112.78 569.42,113.53 571.43,114.29 573.43,115.04 575.44,115.79 577.44,116.54 579.45,117.29 581.45,118.05 583.46,118.80 585.46,119.55 587.47,120.30 589.47,121.05 591.48,121.80 593.48,122.56 595.49,123.31 597.49,124.06 599.50,124.81 601.50,125.56 603.51,126.32 605.51,127.07 607.52,127.82 609.52,128.57 611.53,129.32 613.53,130.08 615.54,130.83 617.54,131.58 619.55,132.33 621.55,133.08 623.56,133.83 625.56,134.59 627.57,135.34 629.57,136.09 631.58,136.84 633.58,137.59 635.59,138.35 637.59,139.10 639.60,139.85 641.60,140.60 643.61,141.35 645.61,142.11 647.62,142.86 649.62,143.61 651.63,144.36 653.63,145.11 655.64,145.86 657.64,146.62 659.65,147.37 661.65,148.12 663.66,148.87 665.66,149.62 667.67,150.38 669.67,151.13 671.68,151.88 673.68,152.63 675.69,153.38 677.69,154.14 679.70,154.89 681.70,155.64 683.71,156.39 685.71,157.14 687.72,157.89 689.72,158.65 691.73,159.40 693.73,160.15 695.74,160.90 697.74,161.65 699.75,162.41 701.75,163.16 703.76,163.91 705.76,164.66 707.77,165.41 709.77,166.17 711.78,166.92 713.78,167.67 715.79,168.42 717.79,169.17 719.80,169.92 721.80,170.68 723.81,171.43 725.81,172.18 727.82,172.93 729.82,173.68 731.83,174.44 733.83,175.19 735.84,175.94 737.84,176.69 739.85,177.44 741.85,178.20 743.86,178.95 745.86,179.70 747.87,180.45 749.87,181.20 751.88,181.95 753.88,182.71 755.89,183.46 757.89,184.21 759.90,184.96 761.90,185.71 763.91,186.47 765.91,187.22 767.92,187.97 769.92,188.72 771.93,189.47 773.93,190.23 775.94,190.98 777.94,191.73 779.95,192.48 781.95,193.23 783.96,193.98 785.96,194.74 787.97,195.49 789.97,196.24 791.98,196.99 793.98,197.74 795.99,198.50 797.99,199.25 800.00,200.00" stroke='#d62728' stroke-width='3' fill='none' />
<polyline points="0.00,0.00 2.01,0.75 4.01,1.50 6.02,2.26 8.02,3.01 10.03,3.76 12.03,4.51 14.04,5.26 16.04,6.02 18.05,6.77 20.05,7.52 22.06,8.27 24.06,9.02 26.07,9.77 28.07,10.53 30.08,11.28 32.08,12.03 34.09,12.78 36.09,13.53 38.10,14.29 40.10,15.04 42.11,15.79 44.11,16.54 46.12,17.29 48.12,18.05 50.13,18.80 52.13,19.55 54.14,20.30 56.14,21.05 58.15,21.80 60.15,22.56 62.16,23.31 64.16,24.06 66.17,24.81 68.17,25.56 70.18,26.32 72.18,27.07 74.19,27.82 76.19,28.57 78.20,29.32 80.20,30.08 82.21,30.83 84.21,31.58 86.22,32.33 88.22,33.08 90.23,33.83 92.23,34.59 94.24,35.34 96.24,36.09 98.25,36.84 100.25,37.59 102.26,38.35 104.26,39.10 106.27,39.85 108.27,40.60 110.28,41.35 112.28,42.11 114.29,42.86 116.29,43.61 118.30,44.36 120.30,45.11 122.31,45.86 124.31,46.62 126.32,47.37 128.32,48.12 130.33,48.87 132.33,49.62 134.34,50.38 136.34,51.13 138.35,51.88 140.35,52.63 142.36,53.38 144.36,54.14 146.37,54.89 148.37,55.64 150.38,56.39 152.38,57.14 154.39,57.89 156.39,58.65 158.40,59.40 160.40,60.15 162.41,60.90 164.41,61.65 166.42,62.41 168.42,63.16 170.43,63.91 172.43,64.66 174.44,65.41 176.44,66.17 178.45,66.92 180.45,67.67 182.46,68.42 184.46,69.17 186.47,69.92 188.47,70.68 190.48,71.43 192.48,72.18 194.49,72.93 196.49,73.68 198.50,74.44 200.50,75.19 202.51,75.94 204.51,76.69 206.52,77.44 208.52,78.20 210.53,78.95 212.53,79.70 214.54,80.45 216.54,81.20 218.55,81.95 220.55,82.71 222.56,83.46 224.56,84.21 226.57,84.96 228.57,85.71 230.58,86.47 232.58,87.22 234.59,87.97 236.59,88.72 238.60,89.47 240.60,90.23 242.61,90.98 244.61,91.73 246.62,92.48 248.62,93.23 250.63,93.98 252.63,94.74 254.64,95.49 256.64,96.24 258.65,96.99 260.65,97.74 262.66,98.50 264.66,99.25 266.67,100.00 268.67,100.75 270.68,101.50 272.68,102.26 274.69,103.01 276.69,103.76 278.70,104.51 280.70,105.26 282.71,106.02 284.71,106.77 286.72,107.52 288.72,108.27 290.73,109.02 292.73,109.77 294.74,110.53 296.74,111.28 298.75,112.03 300.75,112.78 302.76,113.53 304.76,114.29 306.77,115.04 308.77,115.79 310.78,116.54 312.78,117.29 314.79,118.05 316.79,118.80 318.80,119.55 320.80,120.30 322.81,121.05 324.81,121.80 326.82,122.56 328.82,123.31 330.83,124.06 332.83,124.81 334.84,125.56 336.84,126.32 338.85,127.07 340.85,127.82 342.86,128.57 344.86,129.32 346.87,130.08 348.87,130.83 350.88,131.58 352.88,132.33 354.89,133.08 356.89,133.83 358.90,134.59 360.90,135.34 362.91,136.09 364.91,136.84 366.92,137.59 368.92,138.35 370.93,139.10 372.93,139.85 374.94,140.60 376.94,141.35 378.95,142.11 380.95,142.86 382.96,143.61 384.96,144.36 386.97,145.11 388.97,145.86 390.98,146.62 392.98,147.37 394.99,148.12 396.99,148.87 399.00,149.62 401.00,150.38 403.01,151.13 405.01,151.88 407.02,152.63 409.02,153.38 411.03,154.14 413.03,154.89 415.04,155.64 417.04,156.39 419.05,157.14 421.05,157.89 423.06,158.65 425.06,159.40 427.07,160.15 429.07,160.90 431.08,161.65 433.08,162.41 435.09,163.16 437.09,163.91 439.10,164.66 441.10,165.41 443.11,166.17 445.11,166.92 447.12,167.67 449.12,168.42 451.13,169.17 453.13,169.92 455.14,170.68 457.14,171.43 459.15,172.18 461.15,172.93 463.16,173.68 465.16,174.44 467.17,175.19 469.17,175.94 471.18,176.69 473.18,177.44 475.19,178.20 477.19,178.95 479.20,179.70 481.20,180.45 483.21,181.20 485.21,181.95 487.22,182.71 489.22,183.46 491.23,184.21 493.23,184.96 495.24,185.71 497.24,186.47 499.25,187.22 501.25,187.97 503.26,188.72 505.26,189.47 507.27,190.23 509.27,190.98 511.28,191.73 513.28,192.48 515.29,193.23 517.29,193.98 519.30,194.74 521.30,195.49 523.31,196.24 525.31,196.99 527.32,197.74 529.32,198.50 531.33,199.25 533.33,200.00 535.34,200.75 537.34,201.50 539.35,202.26 541.35,203.01 543.36,203.76 545.36,204.51 547.37,205.26 549.37,206.02 551.38,206.77 553.38,207.52 555.39,208.27 557.39,209.02 559.40,209.77 561.40,210.53 563.41,211.28 565.41,212.03 567.42,212.78 569.42,213.53 571.43,214.29 573.43,215.04 575.44,215.79 577.44,216.54 579.45,217.29 581.45,218.05 583.46,218.80 585.46,219.55 587.47,220.30 589.47,221.05 591.48,221.80 593.48,222.56 595.49,223.31 597.49,224.06 599.50,224.81 601.50,225.56 603.51,226.32 605.51,227.07 607.52,227.82 609.52,228.57 611.53,229.32 613.53,230.08 615.54,230.83 617.54,231.58 619.55,232.33 621.55,233.08 623.56,233.83 625.56,234.59 627.57,235.34 629.57,236.09 631.58,236.84 633.58,237.59 635.59,238.35 637.59,239.10 639.60,239.85 641.60,240.60 643.61,241.35 645.61,242.11 647.62,242.86 649.62,243.61 651.63,244.36 653.63,245.11 655.64,245.86 657.64,246.62 659.65,247.37 661.65,248.12 663.66,248.87 665.66,249.62 667.67,250.38 669.67,251.13 671.68,251.88 673.68,252.63 675.69,253.38 677.69,254.14 679.70,254.89 681.70,255.64 683.71,256.39 685.71,257.14 687.72,257.89 689.72,258.65 691.73,259.40 693.73,260.15 695.74,260.90 697.74,261.65 699.75,262.41 701.75,263.16 703.76,263.91 705.76,264.66 707.77,265.41 709.77,266.17 711.78,266.92 713.78,267.67 715.79,268.42 717.79,269.17 719.80,269.92 721.80,270.68 723.81,271.43 725.81,272.18 727.82,272.93 729.82,273.68 731.83,274.44 733.83,275.19 735.84,275.94 737.84,276.69 739.85,277.44 741.85,278.20 743.86,278.95 745.86,279.70 747.87,280.45 749.87,281.20 751.88,281.95 753.88,282.71 755.89,283.46 757.89,284.21 759.90,284.96 761.90,285.71 763.91,286.47 765.91,287.22 767.92,287.97 769.92,288.72 771.93,289.47 773.93,290.23 775.94,290.98 777.94,291.73 779.95,292.48 781.95,293.23 783.96,293.98 785.96,294.74 787.97,295.49 789.97,296.24 791.98,296.99 793.98,297.74 795.99,298.50 797.99,299.25 800.00,300.00" stroke='#ff7f0e' stroke-width='2.5' fill='none' stroke-dasharray='8 6' />
<circle cx='533.33' cy='100.00' r='6' fill='#d62728' />
<text x='545.33' y='88.00' fill='#d62728'>Tangency (1, 2)</text>
<text x='40' y='60' fill='#333333' font-size='26'>Linear Level Sets vs Circle</text>
<text x='40' y='90' fill='#1f77b4'>Constraint x² + y² = 5</text>
<text x='40' y='120' fill='#d62728'>Tangent line x + 2y = 5</text>
<text x='40' y='150' fill='#ff7f0e'>Crossing line x + 2y = 3</text>
<rect x='0' y='0' width='800' height='600' fill='none' stroke='#dddddd' stroke-width='1' />
</svg>